<?xml version="1.0" encoding="UTF-8" standalone="no"?>
<!DOCTYPE svg PUBLIC "-//W3C//DTD SVG 1.1//EN"
 "http://www.w3.org/Graphics/SVG/1.1/DTD/svg11.dtd">
<!-- Generated by graphviz version 2.50.0 (0)
 -->
<!-- Pages: 1 -->
<svg width="269pt" height="264pt"
 viewBox="0.00 0.00 269.00 264.00" xmlns="http://www.w3.org/2000/svg" xmlns:xlink="http://www.w3.org/1999/xlink">
<g id="graph0" class="graph" transform="scale(1 1) rotate(0) translate(4 260)">
<polygon fill="white" stroke="transparent" points="-4,4 -4,-260 265,-260 265,4 -4,4"/>
<!-- node1 -->
<g id="node1" class="node">
<title>node1</title>
<polygon fill="none" stroke="red" points="31,-0.5 31,-36.5 137,-36.5 137,-0.5 31,-0.5"/>
<text text-anchor="middle" x="61.5" y="-14.8" font-family="Times,serif" font-size="14.00">[1] num</text>
<polyline fill="none" stroke="red" points="92,-0.5 92,-36.5 "/>
<text text-anchor="middle" x="114.5" y="-14.8" font-family="Times,serif" font-size="14.00">1 :int</text>
</g>
<!-- node5 -->
<g id="node2" class="node">
<title>node5</title>
<polygon fill="none" stroke="red" points="155,-0.5 155,-36.5 261,-36.5 261,-0.5 155,-0.5"/>
<text text-anchor="middle" x="185.5" y="-14.8" font-family="Times,serif" font-size="14.00">[5] num</text>
<polyline fill="none" stroke="red" points="216,-0.5 216,-36.5 "/>
<text text-anchor="middle" x="238.5" y="-14.8" font-family="Times,serif" font-size="14.00">2 :int</text>
</g>
<!-- node9 -->
<g id="node3" class="node">
<title>node9</title>
<polygon fill="none" stroke="red" points="82,-73.5 82,-109.5 202,-109.5 202,-73.5 82,-73.5"/>
<text text-anchor="middle" x="110" y="-87.8" font-family="Times,serif" font-size="14.00">[9] add</text>
<polyline fill="none" stroke="red" points="138,-73.5 138,-109.5 "/>
<text text-anchor="middle" x="154" y="-87.8" font-family="Times,serif" font-size="14.00">[1]</text>
<polyline fill="none" stroke="red" points="170,-73.5 170,-109.5 "/>
<text text-anchor="middle" x="186" y="-87.8" font-family="Times,serif" font-size="14.00">[5]</text>
</g>
<!-- node9&#45;&gt;node1 -->
<g id="edge1" class="edge">
<title>node9:0&#45;&gt;node1</title>
<path fill="none" stroke="black" d="M154,-73C154,-60.33 146.67,-50.25 136.75,-42.42"/>
<polygon fill="black" stroke="black" points="138.55,-39.41 128.33,-36.62 134.58,-45.18 138.55,-39.41"/>
</g>
<!-- node9&#45;&gt;node5 -->
<g id="edge2" class="edge">
<title>node9:1&#45;&gt;node5</title>
<path fill="none" stroke="black" d="M186,-73C186,-63.76 188.84,-54.25 192.48,-45.86"/>
<polygon fill="black" stroke="black" points="195.76,-47.13 197,-36.61 189.47,-44.06 195.76,-47.13"/>
</g>
<!-- node14 -->
<g id="node4" class="node">
<title>node14</title>
<polygon fill="none" stroke="red" points="82,-146.5 82,-182.5 208,-182.5 208,-146.5 82,-146.5"/>
<text text-anchor="middle" x="113" y="-160.8" font-family="Times,serif" font-size="14.00">[14] sub</text>
<polyline fill="none" stroke="red" points="144,-146.5 144,-182.5 "/>
<text text-anchor="middle" x="160" y="-160.8" font-family="Times,serif" font-size="14.00">[9]</text>
<polyline fill="none" stroke="red" points="176,-146.5 176,-182.5 "/>
<text text-anchor="middle" x="192" y="-160.8" font-family="Times,serif" font-size="14.00">[5]</text>
</g>
<!-- node14&#45;&gt;node5 -->
<g id="edge4" class="edge">
<title>node14:1&#45;&gt;node5</title>
<path fill="none" stroke="black" d="M192,-146C192,-127.91 206.65,-127.56 211,-110 216.15,-89.21 214.97,-64.91 212.74,-46.73"/>
<polygon fill="black" stroke="black" points="216.2,-46.22 211.34,-36.81 209.27,-47.2 216.2,-46.22"/>
</g>
<!-- node14&#45;&gt;node9 -->
<g id="edge3" class="edge">
<title>node14:0&#45;&gt;node9</title>
<path fill="none" stroke="black" d="M160,-146C160,-136.98 157.68,-127.54 154.7,-119.14"/>
<polygon fill="black" stroke="black" points="157.95,-117.84 151,-109.84 151.44,-120.43 157.95,-117.84"/>
</g>
<!-- node19 -->
<g id="node5" class="node">
<title>node19</title>
<polygon fill="none" stroke="red" points="0,-219.5 0,-255.5 136,-255.5 136,-219.5 0,-219.5"/>
<text text-anchor="middle" x="32.5" y="-233.8" font-family="Times,serif" font-size="14.00">[19] mul</text>
<polyline fill="none" stroke="red" points="65,-219.5 65,-255.5 "/>
<text text-anchor="middle" x="81" y="-233.8" font-family="Times,serif" font-size="14.00">[5]</text>
<polyline fill="none" stroke="red" points="97,-219.5 97,-255.5 "/>
<text text-anchor="middle" x="116.5" y="-233.8" font-family="Times,serif" font-size="14.00">[14]</text>
</g>
<!-- node19&#45;&gt;node5 -->
<g id="edge5" class="edge">
<title>node19:0&#45;&gt;node5</title>
<path fill="none" stroke="black" d="M81,-219C81,-202.61 74.79,-199.29 73,-183 67.67,-134.4 45.53,-113.44 73,-73 77.69,-66.1 113.65,-52.02 147.28,-40.04"/>
<polygon fill="black" stroke="black" points="148.87,-43.19 157.14,-36.56 146.54,-36.59 148.87,-43.19"/>
</g>
<!-- node19&#45;&gt;node14 -->
<g id="edge6" class="edge">
<title>node19:1&#45;&gt;node14</title>
<path fill="none" stroke="black" d="M117,-219C117,-209.3 120.66,-199.62 125.33,-191.22"/>
<polygon fill="black" stroke="black" points="128.35,-192.99 130.67,-182.66 122.41,-189.29 128.35,-192.99"/>
</g>
</g>
</svg>