<?xml version="1.0" encoding="UTF-8" standalone="no"?>
<!DOCTYPE svg PUBLIC "-//W3C//DTD SVG 1.1//EN"
 "http://www.w3.org/Graphics/SVG/1.1/DTD/svg11.dtd">
<!-- Generated by graphviz version 2.50.0 (0)
 -->
<!-- Pages: 1 -->
<svg width="516pt" height="287pt"
 viewBox="0.00 0.00 516.00 287.00" xmlns="http://www.w3.org/2000/svg" xmlns:xlink="http://www.w3.org/1999/xlink">
<g id="graph0" class="graph" transform="scale(1 1) rotate(0) translate(4 283)">
<polygon fill="white" stroke="transparent" points="-4,4 -4,-283 512,-283 512,4 -4,4"/>
<!-- start -->
<g id="node1" class="node">
<title>start</title>
<ellipse fill="none" stroke="black" cx="56.5" cy="-249" rx="26" ry="26"/>
<ellipse fill="none" stroke="black" cx="56.5" cy="-249" rx="30" ry="30"/>
<text text-anchor="middle" x="56.5" y="-245.3" font-family="Times,serif" font-size="14.00">start</text>
</g>
<!-- node44 -->
<g id="node9" class="node">
<title>node44</title>
<polygon fill="none" stroke="black" points="0,-146.5 0,-182.5 113,-182.5 113,-146.5 0,-146.5"/>
<text text-anchor="middle" x="34" y="-160.8" font-family="Times,serif" font-size="14.00">[44] num</text>
<polyline fill="none" stroke="black" points="68,-146.5 68,-182.5 "/>
<text text-anchor="middle" x="90.5" y="-160.8" font-family="Times,serif" font-size="14.00">2 :int</text>
</g>
<!-- start&#45;&gt;node44 -->
<g id="edge7" class="edge">
<title>start&#45;&gt;node44</title>
<path fill="none" stroke="black" d="M56.5,-218.68C56.5,-210.31 56.5,-201.22 56.5,-192.96"/>
<polygon fill="black" stroke="black" points="60,-192.72 56.5,-182.72 53,-192.72 60,-192.72"/>
</g>
<!-- node1 -->
<g id="node2" class="node">
<title>node1</title>
<polygon fill="none" stroke="lightgrey" points="142.5,-0.5 142.5,-36.5 248.5,-36.5 248.5,-0.5 142.5,-0.5"/>
<text text-anchor="middle" x="173" y="-14.8" font-family="Times,serif" font-size="14.00">[1] num</text>
<polyline fill="none" stroke="lightgrey" points="203.5,-0.5 203.5,-36.5 "/>
<text text-anchor="middle" x="226" y="-14.8" font-family="Times,serif" font-size="14.00">1 :int</text>
</g>
<!-- node5 -->
<g id="node3" class="node">
<title>node5</title>
<polygon fill="none" stroke="lightgrey" points="266.5,-0.5 266.5,-36.5 372.5,-36.5 372.5,-0.5 266.5,-0.5"/>
<text text-anchor="middle" x="297" y="-14.8" font-family="Times,serif" font-size="14.00">[5] num</text>
<polyline fill="none" stroke="lightgrey" points="327.5,-0.5 327.5,-36.5 "/>
<text text-anchor="middle" x="350" y="-14.8" font-family="Times,serif" font-size="14.00">2 :int</text>
</g>
<!-- node9 -->
<g id="node4" class="node">
<title>node9</title>
<polygon fill="none" stroke="lightgrey" points="193.5,-73.5 193.5,-109.5 313.5,-109.5 313.5,-73.5 193.5,-73.5"/>
<text text-anchor="middle" x="221.5" y="-87.8" font-family="Times,serif" font-size="14.00">[9] add</text>
<polyline fill="none" stroke="lightgrey" points="249.5,-73.5 249.5,-109.5 "/>
<text text-anchor="middle" x="265.5" y="-87.8" font-family="Times,serif" font-size="14.00">[1]</text>
<polyline fill="none" stroke="lightgrey" points="281.5,-73.5 281.5,-109.5 "/>
<text text-anchor="middle" x="297.5" y="-87.8" font-family="Times,serif" font-size="14.00">[5]</text>
</g>
<!-- node9&#45;&gt;node1 -->
<g id="edge1" class="edge">
<title>node9:0&#45;&gt;node1</title>
<path fill="none" stroke="lightgrey" d="M265.5,-73C265.5,-60.33 258.17,-50.25 248.25,-42.42"/>
<polygon fill="lightgrey" stroke="lightgrey" points="250.05,-39.41 239.83,-36.62 246.08,-45.18 250.05,-39.41"/>
</g>
<!-- node9&#45;&gt;node5 -->
<g id="edge2" class="edge">
<title>node9:1&#45;&gt;node5</title>
<path fill="none" stroke="lightgrey" d="M297.5,-73C297.5,-63.76 300.34,-54.25 303.98,-45.86"/>
<polygon fill="lightgrey" stroke="lightgrey" points="307.26,-47.13 308.5,-36.61 300.97,-44.06 307.26,-47.13"/>
</g>
<!-- node14 -->
<g id="node5" class="node">
<title>node14</title>
<polygon fill="none" stroke="lightgrey" points="193.5,-146.5 193.5,-182.5 319.5,-182.5 319.5,-146.5 193.5,-146.5"/>
<text text-anchor="middle" x="224.5" y="-160.8" font-family="Times,serif" font-size="14.00">[14] sub</text>
<polyline fill="none" stroke="lightgrey" points="255.5,-146.5 255.5,-182.5 "/>
<text text-anchor="middle" x="271.5" y="-160.8" font-family="Times,serif" font-size="14.00">[9]</text>
<polyline fill="none" stroke="lightgrey" points="287.5,-146.5 287.5,-182.5 "/>
<text text-anchor="middle" x="303.5" y="-160.8" font-family="Times,serif" font-size="14.00">[5]</text>
</g>
<!-- node14&#45;&gt;node5 -->
<g id="edge4" class="edge">
<title>node14:1&#45;&gt;node5</title>
<path fill="none" stroke="lightgrey" d="M303.5,-146C303.5,-127.91 318.15,-127.56 322.5,-110 327.65,-89.21 326.47,-64.91 324.24,-46.73"/>
<polygon fill="lightgrey" stroke="lightgrey" points="327.7,-46.22 322.84,-36.81 320.77,-47.2 327.7,-46.22"/>
</g>
<!-- node14&#45;&gt;node9 -->
<g id="edge3" class="edge">
<title>node14:0&#45;&gt;node9</title>
<path fill="none" stroke="lightgrey" d="M271.5,-146C271.5,-136.98 269.18,-127.54 266.2,-119.14"/>
<polygon fill="lightgrey" stroke="lightgrey" points="269.45,-117.84 262.5,-109.84 262.94,-120.43 269.45,-117.84"/>
</g>
<!-- node19 -->
<g id="node6" class="node">
<title>node19</title>
<polygon fill="none" stroke="lightgrey" points="109.5,-231 109.5,-267 245.5,-267 245.5,-231 109.5,-231"/>
<text text-anchor="middle" x="142" y="-245.3" font-family="Times,serif" font-size="14.00">[19] mul</text>
<polyline fill="none" stroke="lightgrey" points="174.5,-231 174.5,-267 "/>
<text text-anchor="middle" x="190.5" y="-245.3" font-family="Times,serif" font-size="14.00">[5]</text>
<polyline fill="none" stroke="lightgrey" points="206.5,-231 206.5,-267 "/>
<text text-anchor="middle" x="226" y="-245.3" font-family="Times,serif" font-size="14.00">[14]</text>
</g>
<!-- node19&#45;&gt;node5 -->
<g id="edge5" class="edge">
<title>node19:0&#45;&gt;node5</title>
<path fill="none" stroke="lightgrey" d="M190.5,-230C190.5,-160.17 145.26,-130.76 184.5,-73 189.19,-66.1 225.15,-52.02 258.78,-40.04"/>
<polygon fill="lightgrey" stroke="lightgrey" points="260.37,-43.19 268.64,-36.56 258.04,-36.59 260.37,-43.19"/>
</g>
<!-- node19&#45;&gt;node14 -->
<g id="edge6" class="edge">
<title>node19:1&#45;&gt;node14</title>
<path fill="none" stroke="lightgrey" d="M226.5,-230C226.5,-216.49 231.98,-202.75 238.25,-191.44"/>
<polygon fill="lightgrey" stroke="lightgrey" points="241.43,-192.95 243.6,-182.58 235.44,-189.33 241.43,-192.95"/>
</g>
<!-- node24 -->
<g id="node7" class="node">
<title>node24</title>
<polygon fill="none" stroke="lightgrey" points="264,-231 264,-267 377,-267 377,-231 264,-231"/>
<text text-anchor="middle" x="298" y="-245.3" font-family="Times,serif" font-size="14.00">[24] num</text>
<polyline fill="none" stroke="lightgrey" points="332,-231 332,-267 "/>
<text text-anchor="middle" x="354.5" y="-245.3" font-family="Times,serif" font-size="14.00">3 :int</text>
</g>
<!-- node34 -->
<g id="node8" class="node">
<title>node34</title>
<polygon fill="none" stroke="lightgrey" points="395,-231 395,-267 508,-267 508,-231 395,-231"/>
<text text-anchor="middle" x="429" y="-245.3" font-family="Times,serif" font-size="14.00">[34] num</text>
<polyline fill="none" stroke="lightgrey" points="463,-231 463,-267 "/>
<text text-anchor="middle" x="485.5" y="-245.3" font-family="Times,serif" font-size="14.00">1 :int</text>
</g>
</g>
</svg>