<?xml version="1.0" encoding="UTF-8" standalone="no"?>
<!DOCTYPE svg PUBLIC "-//W3C//DTD SVG 1.1//EN"
 "http://www.w3.org/Graphics/SVG/1.1/DTD/svg11.dtd">
<!-- Generated by graphviz version 2.50.0 (0)
 -->
<!-- Pages: 1 -->
<svg width="238pt" height="118pt"
 viewBox="0.00 0.00 238.00 118.00" xmlns="http://www.w3.org/2000/svg" xmlns:xlink="http://www.w3.org/1999/xlink">
<g id="graph0" class="graph" transform="scale(1 1) rotate(0) translate(4 114)">
<polygon fill="white" stroke="transparent" points="-4,4 -4,-114 234,-114 234,4 -4,4"/>
<!-- node1 -->
<g id="node1" class="node">
<title>node1</title>
<polygon fill="none" stroke="red" points="0,-73.5 0,-109.5 106,-109.5 106,-73.5 0,-73.5"/>
<text text-anchor="middle" x="30.5" y="-87.8" font-family="Times,serif" font-size="14.00">[1] num</text>
<polyline fill="none" stroke="red" points="61,-73.5 61,-109.5 "/>
<text text-anchor="middle" x="83.5" y="-87.8" font-family="Times,serif" font-size="14.00">1 :int</text>
</g>
<!-- node9 -->
<g id="node3" class="node">
<title>node9</title>
<polygon fill="none" stroke="red" points="27,-0.5 27,-36.5 147,-36.5 147,-0.5 27,-0.5"/>
<text text-anchor="middle" x="55" y="-14.8" font-family="Times,serif" font-size="14.00">[9] add</text>
<polyline fill="none" stroke="red" points="83,-0.5 83,-36.5 "/>
<text text-anchor="middle" x="99" y="-14.8" font-family="Times,serif" font-size="14.00">[1]</text>
<polyline fill="none" stroke="red" points="115,-0.5 115,-36.5 "/>
<text text-anchor="middle" x="131" y="-14.8" font-family="Times,serif" font-size="14.00">[5]</text>
</g>
<!-- node1&#45;&gt;node9 -->
<g id="edge1" class="edge">
<title>node1&#45;&gt;node9:0</title>
<path fill="none" stroke="black" d="M78.42,-73.46C86.57,-66.34 94.3,-57.3 97.48,-46.9"/>
<polygon fill="black" stroke="black" points="100.94,-47.42 99,-37 94.02,-46.35 100.94,-47.42"/>
</g>
<!-- node5 -->
<g id="node2" class="node">
<title>node5</title>
<polygon fill="none" stroke="red" points="124,-73.5 124,-109.5 230,-109.5 230,-73.5 124,-73.5"/>
<text text-anchor="middle" x="154.5" y="-87.8" font-family="Times,serif" font-size="14.00">[5] num</text>
<polyline fill="none" stroke="red" points="185,-73.5 185,-109.5 "/>
<text text-anchor="middle" x="207.5" y="-87.8" font-family="Times,serif" font-size="14.00">2 :int</text>
</g>
<!-- node5&#45;&gt;node9 -->
<g id="edge2" class="edge">
<title>node5&#45;&gt;node9:1</title>
<path fill="none" stroke="black" d="M151.58,-73.46C143.43,-66.34 135.7,-57.3 132.52,-46.9"/>
<polygon fill="black" stroke="black" points="135.98,-46.35 131,-37 129.06,-47.42 135.98,-46.35"/>
</g>
</g>
</svg>