<?xml version="1.0" encoding="UTF-8" standalone="no"?>
<!DOCTYPE svg PUBLIC "-//W3C//DTD SVG 1.1//EN"
 "http://www.w3.org/Graphics/SVG/1.1/DTD/svg11.dtd">
<!-- Generated by graphviz version 2.50.0 (0)
 -->
<!-- Pages: 1 -->
<svg width="916pt" height="725pt"
 viewBox="0.00 0.00 916.00 725.00" xmlns="http://www.w3.org/2000/svg" xmlns:xlink="http://www.w3.org/1999/xlink">
<g id="graph0" class="graph" transform="scale(1 1) rotate(0) translate(4 721)">
<polygon fill="white" stroke="transparent" points="-4,4 -4,-721 912,-721 912,4 -4,4"/>
<!-- start -->
<g id="node1" class="node">
<title>start</title>
<ellipse fill="none" stroke="black" cx="500.5" cy="-614" rx="26" ry="26"/>
<ellipse fill="none" stroke="black" cx="500.5" cy="-614" rx="30" ry="30"/>
<text text-anchor="middle" x="500.5" y="-610.3" font-family="Times,serif" font-size="14.00">start</text>
</g>
<!-- node199 -->
<g id="node26" class="node">
<title>node199</title>
<polygon fill="none" stroke="black" points="440,-511.5 440,-547.5 561,-547.5 561,-511.5 440,-511.5"/>
<text text-anchor="middle" x="477.5" y="-525.8" font-family="Times,serif" font-size="14.00">[199] Lam</text>
<polyline fill="none" stroke="black" points="515,-511.5 515,-547.5 "/>
<text text-anchor="middle" x="538" y="-525.8" font-family="Times,serif" font-size="14.00">[188]</text>
</g>
<!-- start&#45;&gt;node199 -->
<g id="edge31" class="edge">
<title>start&#45;&gt;node199</title>
<path fill="none" stroke="black" d="M500.5,-583.68C500.5,-575.31 500.5,-566.22 500.5,-557.96"/>
<polygon fill="black" stroke="black" points="504,-557.72 500.5,-547.72 497,-557.72 504,-557.72"/>
</g>
<!-- node1 -->
<g id="node2" class="node">
<title>node1</title>
<polygon fill="none" stroke="black" points="117,-292.5 117,-328.5 218,-328.5 218,-292.5 117,-292.5"/>
<text text-anchor="middle" x="145" y="-306.8" font-family="Times,serif" font-size="14.00">[1] Arg</text>
<polyline fill="none" stroke="black" points="173,-292.5 173,-328.5 "/>
<text text-anchor="middle" x="195.5" y="-306.8" font-family="Times,serif" font-size="14.00">0 :int</text>
</g>
<!-- node5 -->
<g id="node3" class="node">
<title>node5</title>
<polygon fill="none" stroke="black" points="236,-292.5 236,-328.5 345,-328.5 345,-292.5 236,-292.5"/>
<text text-anchor="middle" x="268" y="-306.8" font-family="Times,serif" font-size="14.00">[5] Num</text>
<polyline fill="none" stroke="black" points="300,-292.5 300,-328.5 "/>
<text text-anchor="middle" x="322.5" y="-306.8" font-family="Times,serif" font-size="14.00">2 :int</text>
</g>
<!-- node9 -->
<g id="node4" class="node">
<title>node9</title>
<polygon fill="none" stroke="black" points="183,-365.5 183,-401.5 306,-401.5 306,-365.5 183,-365.5"/>
<text text-anchor="middle" x="212.5" y="-379.8" font-family="Times,serif" font-size="14.00">[9] Mul</text>
<polyline fill="none" stroke="black" points="242,-365.5 242,-401.5 "/>
<text text-anchor="middle" x="258" y="-379.8" font-family="Times,serif" font-size="14.00">[1]</text>
<polyline fill="none" stroke="black" points="274,-365.5 274,-401.5 "/>
<text text-anchor="middle" x="290" y="-379.8" font-family="Times,serif" font-size="14.00">[5]</text>
</g>
<!-- node9&#45;&gt;node1 -->
<g id="edge1" class="edge">
<title>node9:0&#45;&gt;node1</title>
<path fill="none" stroke="black" d="M258.5,-365C258.5,-354.55 240.44,-342.79 220.42,-332.97"/>
<polygon fill="black" stroke="black" points="221.67,-329.69 211.13,-328.6 218.69,-336.03 221.67,-329.69"/>
</g>
<!-- node9&#45;&gt;node5 -->
<g id="edge2" class="edge">
<title>node9:1&#45;&gt;node5</title>
<path fill="none" stroke="black" d="M290.5,-365C290.5,-356.51 290.5,-347.26 290.5,-338.88"/>
<polygon fill="black" stroke="black" points="294,-338.85 290.5,-328.85 287,-338.85 294,-338.85"/>
</g>
<!-- node14 -->
<g id="node5" class="node">
<title>node14</title>
<polygon fill="none" stroke="lightgrey" points="56,-438.5 56,-474.5 185,-474.5 185,-438.5 56,-438.5"/>
<text text-anchor="middle" x="88.5" y="-452.8" font-family="Times,serif" font-size="14.00">[14] Add</text>
<polyline fill="none" stroke="lightgrey" points="121,-438.5 121,-474.5 "/>
<text text-anchor="middle" x="137" y="-452.8" font-family="Times,serif" font-size="14.00">[9]</text>
<polyline fill="none" stroke="lightgrey" points="153,-438.5 153,-474.5 "/>
<text text-anchor="middle" x="169" y="-452.8" font-family="Times,serif" font-size="14.00">[1]</text>
</g>
<!-- node14&#45;&gt;node1 -->
<g id="edge4" class="edge">
<title>node14:1&#45;&gt;node1</title>
<path fill="none" stroke="lightgrey" d="M169.5,-438C169.5,-403.79 168.76,-364.38 168.18,-338.77"/>
<polygon fill="lightgrey" stroke="lightgrey" points="171.68,-338.6 167.94,-328.69 164.68,-338.77 171.68,-338.6"/>
</g>
<!-- node14&#45;&gt;node9 -->
<g id="edge3" class="edge">
<title>node14:0&#45;&gt;node9</title>
<path fill="none" stroke="lightgrey" d="M137.5,-438C137.5,-426.41 157.84,-414.75 180.79,-405.3"/>
<polygon fill="lightgrey" stroke="lightgrey" points="182.35,-408.44 190.37,-401.52 179.79,-401.93 182.35,-408.44"/>
</g>
<!-- node19 -->
<g id="node6" class="node">
<title>node19</title>
<polygon fill="none" stroke="lightgrey" points="101,-511.5 101,-547.5 236,-547.5 236,-511.5 101,-511.5"/>
<text text-anchor="middle" x="133" y="-525.8" font-family="Times,serif" font-size="14.00">[19] Sub</text>
<polyline fill="none" stroke="lightgrey" points="165,-511.5 165,-547.5 "/>
<text text-anchor="middle" x="181" y="-525.8" font-family="Times,serif" font-size="14.00">[9]</text>
<polyline fill="none" stroke="lightgrey" points="197,-511.5 197,-547.5 "/>
<text text-anchor="middle" x="216.5" y="-525.8" font-family="Times,serif" font-size="14.00">[14]</text>
</g>
<!-- node19&#45;&gt;node9 -->
<g id="edge5" class="edge">
<title>node19:0&#45;&gt;node9</title>
<path fill="none" stroke="lightgrey" d="M181.5,-511C181.5,-500.18 211.42,-444.2 230.02,-410.44"/>
<polygon fill="lightgrey" stroke="lightgrey" points="233.15,-412.01 234.93,-401.56 227.03,-408.62 233.15,-412.01"/>
</g>
<!-- node19&#45;&gt;node14 -->
<g id="edge6" class="edge">
<title>node19:1&#45;&gt;node14</title>
<path fill="none" stroke="lightgrey" d="M216.5,-511C216.5,-495.66 207.03,-484.68 194.05,-476.83"/>
<polygon fill="lightgrey" stroke="lightgrey" points="195.55,-473.67 185.07,-472.11 192.29,-479.86 195.55,-473.67"/>
</g>
<!-- node24 -->
<g id="node7" class="node">
<title>node24</title>
<polygon fill="none" stroke="lightgrey" points="15.5,-596 15.5,-632 159.5,-632 159.5,-596 15.5,-596"/>
<text text-anchor="middle" x="48.5" y="-610.3" font-family="Times,serif" font-size="14.00">[24] Mul</text>
<polyline fill="none" stroke="lightgrey" points="81.5,-596 81.5,-632 "/>
<text text-anchor="middle" x="101" y="-610.3" font-family="Times,serif" font-size="14.00">[14]</text>
<polyline fill="none" stroke="lightgrey" points="120.5,-596 120.5,-632 "/>
<text text-anchor="middle" x="140" y="-610.3" font-family="Times,serif" font-size="14.00">[19]</text>
</g>
<!-- node24&#45;&gt;node14 -->
<g id="edge7" class="edge">
<title>node24:0&#45;&gt;node14</title>
<path fill="none" stroke="lightgrey" d="M101.5,-595C101.5,-573.64 93.73,-569.24 91.5,-548 89.78,-531.65 87.46,-526.94 91.5,-511 93.9,-501.52 98.36,-491.91 103.07,-483.49"/>
<polygon fill="lightgrey" stroke="lightgrey" points="106.08,-485.28 108.19,-474.89 100.07,-481.69 106.08,-485.28"/>
</g>
<!-- node24&#45;&gt;node19 -->
<g id="edge8" class="edge">
<title>node24:1&#45;&gt;node19</title>
<path fill="none" stroke="lightgrey" d="M140.5,-595C140.5,-581.65 145.61,-567.93 151.47,-556.6"/>
<polygon fill="lightgrey" stroke="lightgrey" points="154.62,-558.13 156.46,-547.7 148.51,-554.71 154.62,-558.13"/>
</g>
<!-- node29 -->
<g id="node8" class="node">
<title>node29</title>
<polygon fill="none" stroke="lightgrey" points="0,-680.5 0,-716.5 107,-716.5 107,-680.5 0,-680.5"/>
<text text-anchor="middle" x="34" y="-694.8" font-family="Times,serif" font-size="14.00">[29] Lam</text>
<polyline fill="none" stroke="lightgrey" points="68,-680.5 68,-716.5 "/>
<text text-anchor="middle" x="87.5" y="-694.8" font-family="Times,serif" font-size="14.00">[24]</text>
</g>
<!-- node29&#45;&gt;node24 -->
<g id="edge9" class="edge">
<title>node29:0&#45;&gt;node24</title>
<path fill="none" stroke="lightgrey" d="M87.5,-680C87.5,-667.55 87.5,-653.77 87.5,-642.12"/>
<polygon fill="lightgrey" stroke="lightgrey" points="91,-642.1 87.5,-632.1 84,-642.1 91,-642.1"/>
</g>
<!-- node33 -->
<g id="node9" class="node">
<title>node33</title>
<polygon fill="none" stroke="black" points="525.5,-146.5 525.5,-182.5 633.5,-182.5 633.5,-146.5 525.5,-146.5"/>
<text text-anchor="middle" x="557" y="-160.8" font-family="Times,serif" font-size="14.00">[33] Arg</text>
<polyline fill="none" stroke="black" points="588.5,-146.5 588.5,-182.5 "/>
<text text-anchor="middle" x="611" y="-160.8" font-family="Times,serif" font-size="14.00">1 :int</text>
</g>
<!-- node43 -->
<g id="node10" class="node">
<title>node43</title>
<polygon fill="none" stroke="black" points="399.5,-146.5 399.5,-182.5 507.5,-182.5 507.5,-146.5 399.5,-146.5"/>
<text text-anchor="middle" x="431" y="-160.8" font-family="Times,serif" font-size="14.00">[43] Arg</text>
<polyline fill="none" stroke="black" points="462.5,-146.5 462.5,-182.5 "/>
<text text-anchor="middle" x="485" y="-160.8" font-family="Times,serif" font-size="14.00">0 :int</text>
</g>
<!-- node53 -->
<g id="node11" class="node">
<title>node53</title>
<polygon fill="none" stroke="black" points="456,-219.5 456,-255.5 599,-255.5 599,-219.5 456,-219.5"/>
<text text-anchor="middle" x="488.5" y="-233.8" font-family="Times,serif" font-size="14.00">[53] Add</text>
<polyline fill="none" stroke="black" points="521,-219.5 521,-255.5 "/>
<text text-anchor="middle" x="540.5" y="-233.8" font-family="Times,serif" font-size="14.00">[43]</text>
<polyline fill="none" stroke="black" points="560,-219.5 560,-255.5 "/>
<text text-anchor="middle" x="579.5" y="-233.8" font-family="Times,serif" font-size="14.00">[33]</text>
</g>
<!-- node53&#45;&gt;node33 -->
<g id="edge11" class="edge">
<title>node53:1&#45;&gt;node33</title>
<path fill="none" stroke="black" d="M579.5,-219C579.5,-210.51 579.5,-201.26 579.5,-192.88"/>
<polygon fill="black" stroke="black" points="583,-192.85 579.5,-182.85 576,-192.85 583,-192.85"/>
</g>
<!-- node53&#45;&gt;node43 -->
<g id="edge10" class="edge">
<title>node53:0&#45;&gt;node43</title>
<path fill="none" stroke="black" d="M540.5,-219C540.5,-203.44 530.27,-192.26 516.83,-184.28"/>
<polygon fill="black" stroke="black" points="518.1,-181 507.61,-179.49 514.87,-187.21 518.1,-181"/>
</g>
<!-- node64 -->
<g id="node12" class="node">
<title>node64</title>
<polygon fill="none" stroke="lightgrey" points="401.5,-292.5 401.5,-328.5 543.5,-328.5 543.5,-292.5 401.5,-292.5"/>
<text text-anchor="middle" x="433.5" y="-306.8" font-family="Times,serif" font-size="14.00">[64] Sub</text>
<polyline fill="none" stroke="lightgrey" points="465.5,-292.5 465.5,-328.5 "/>
<text text-anchor="middle" x="485" y="-306.8" font-family="Times,serif" font-size="14.00">[43]</text>
<polyline fill="none" stroke="lightgrey" points="504.5,-292.5 504.5,-328.5 "/>
<text text-anchor="middle" x="524" y="-306.8" font-family="Times,serif" font-size="14.00">[53]</text>
</g>
<!-- node64&#45;&gt;node43 -->
<g id="edge12" class="edge">
<title>node64:0&#45;&gt;node43</title>
<path fill="none" stroke="lightgrey" d="M485.5,-292C485.5,-268.41 455.96,-277.61 446.5,-256 437.74,-236 440.52,-211.13 444.9,-192.53"/>
<polygon fill="lightgrey" stroke="lightgrey" points="448.34,-193.21 447.52,-182.65 441.58,-191.42 448.34,-193.21"/>
</g>
<!-- node64&#45;&gt;node53 -->
<g id="edge13" class="edge">
<title>node64:1&#45;&gt;node53</title>
<path fill="none" stroke="lightgrey" d="M524.5,-292C524.5,-283.5 524.88,-274.25 525.37,-265.86"/>
<polygon fill="lightgrey" stroke="lightgrey" points="528.87,-266.04 526.04,-255.83 521.89,-265.58 528.87,-266.04"/>
</g>
<!-- node75 -->
<g id="node13" class="node">
<title>node75</title>
<polygon fill="none" stroke="lightgrey" points="333.5,-365.5 333.5,-401.5 477.5,-401.5 477.5,-365.5 333.5,-365.5"/>
<text text-anchor="middle" x="366.5" y="-379.8" font-family="Times,serif" font-size="14.00">[75] Mul</text>
<polyline fill="none" stroke="lightgrey" points="399.5,-365.5 399.5,-401.5 "/>
<text text-anchor="middle" x="419" y="-379.8" font-family="Times,serif" font-size="14.00">[53]</text>
<polyline fill="none" stroke="lightgrey" points="438.5,-365.5 438.5,-401.5 "/>
<text text-anchor="middle" x="458" y="-379.8" font-family="Times,serif" font-size="14.00">[64]</text>
</g>
<!-- node75&#45;&gt;node53 -->
<g id="edge14" class="edge">
<title>node75:0&#45;&gt;node53</title>
<path fill="none" stroke="lightgrey" d="M419.5,-365C419.5,-345 398.82,-347.97 392.5,-329 387.3,-313.4 383.26,-305.6 392.5,-292 405.09,-273.46 425.22,-261.35 446.12,-253.43"/>
<polygon fill="lightgrey" stroke="lightgrey" points="447.46,-256.67 455.76,-250.08 445.16,-250.06 447.46,-256.67"/>
</g>
<!-- node75&#45;&gt;node64 -->
<g id="edge15" class="edge">
<title>node75:1&#45;&gt;node64</title>
<path fill="none" stroke="lightgrey" d="M458.5,-365C458.5,-356.13 460.32,-346.69 462.66,-338.25"/>
<polygon fill="lightgrey" stroke="lightgrey" points="466.04,-339.14 465.66,-328.55 459.36,-337.07 466.04,-339.14"/>
</g>
<!-- node86 -->
<g id="node14" class="node">
<title>node86</title>
<polygon fill="none" stroke="lightgrey" points="318,-438.5 318,-474.5 425,-474.5 425,-438.5 318,-438.5"/>
<text text-anchor="middle" x="352" y="-452.8" font-family="Times,serif" font-size="14.00">[86] Lam</text>
<polyline fill="none" stroke="lightgrey" points="386,-438.5 386,-474.5 "/>
<text text-anchor="middle" x="405.5" y="-452.8" font-family="Times,serif" font-size="14.00">[75]</text>
</g>
<!-- node86&#45;&gt;node75 -->
<g id="edge16" class="edge">
<title>node86:0&#45;&gt;node75</title>
<path fill="none" stroke="lightgrey" d="M405.5,-438C405.5,-429.51 405.5,-420.26 405.5,-411.88"/>
<polygon fill="lightgrey" stroke="lightgrey" points="409,-411.85 405.5,-401.85 402,-411.85 409,-411.85"/>
</g>
<!-- node90 -->
<g id="node15" class="node">
<title>node90</title>
<polygon fill="none" stroke="lightgrey" points="254.5,-511.5 254.5,-547.5 390.5,-547.5 390.5,-511.5 254.5,-511.5"/>
<text text-anchor="middle" x="287" y="-525.8" font-family="Times,serif" font-size="14.00">[90] App</text>
<polyline fill="none" stroke="lightgrey" points="319.5,-511.5 319.5,-547.5 "/>
<text text-anchor="middle" x="335.5" y="-525.8" font-family="Times,serif" font-size="14.00">[9]</text>
<polyline fill="none" stroke="lightgrey" points="351.5,-511.5 351.5,-547.5 "/>
<text text-anchor="middle" x="371" y="-525.8" font-family="Times,serif" font-size="14.00">[86]</text>
</g>
<!-- node90&#45;&gt;node9 -->
<g id="edge17" class="edge">
<title>node90:0&#45;&gt;node9</title>
<path fill="none" stroke="lightgrey" d="M335.5,-511C335.5,-491 320.28,-491.17 308.5,-475 292.63,-453.21 274.97,-428.17 262.22,-409.96"/>
<polygon fill="lightgrey" stroke="lightgrey" points="264.99,-407.81 256.39,-401.61 259.25,-411.82 264.99,-407.81"/>
</g>
<!-- node90&#45;&gt;node86 -->
<g id="edge18" class="edge">
<title>node90:1&#45;&gt;node86</title>
<path fill="none" stroke="lightgrey" d="M371.5,-511C371.5,-502.51 371.5,-493.26 371.5,-484.88"/>
<polygon fill="lightgrey" stroke="lightgrey" points="375,-484.85 371.5,-474.85 368,-484.85 375,-484.85"/>
</g>
<!-- node101 -->
<g id="node16" class="node">
<title>node101</title>
<polygon fill="none" stroke="lightgrey" points="227.5,-596 227.5,-632 341.5,-632 341.5,-596 227.5,-596"/>
<text text-anchor="middle" x="265" y="-610.3" font-family="Times,serif" font-size="14.00">[101] Lam</text>
<polyline fill="none" stroke="lightgrey" points="302.5,-596 302.5,-632 "/>
<text text-anchor="middle" x="322" y="-610.3" font-family="Times,serif" font-size="14.00">[90]</text>
</g>
<!-- node101&#45;&gt;node90 -->
<g id="edge19" class="edge">
<title>node101:0&#45;&gt;node90</title>
<path fill="none" stroke="lightgrey" d="M322.5,-595C322.5,-582.86 322.5,-569.44 322.5,-558"/>
<polygon fill="lightgrey" stroke="lightgrey" points="326,-557.75 322.5,-547.75 319,-557.75 326,-557.75"/>
</g>
<!-- node111 -->
<g id="node17" class="node">
<title>node111</title>
<polygon fill="none" stroke="lightgrey" points="125,-680.5 125,-716.5 240,-716.5 240,-680.5 125,-680.5"/>
<text text-anchor="middle" x="160" y="-694.8" font-family="Times,serif" font-size="14.00">[111] Arg</text>
<polyline fill="none" stroke="lightgrey" points="195,-680.5 195,-716.5 "/>
<text text-anchor="middle" x="217.5" y="-694.8" font-family="Times,serif" font-size="14.00">2 :int</text>
</g>
<!-- node121 -->
<g id="node18" class="node">
<title>node121</title>
<polygon fill="none" stroke="black" points="792,-0.5 792,-36.5 907,-36.5 907,-0.5 792,-0.5"/>
<text text-anchor="middle" x="827" y="-14.8" font-family="Times,serif" font-size="14.00">[121] Arg</text>
<polyline fill="none" stroke="black" points="862,-0.5 862,-36.5 "/>
<text text-anchor="middle" x="884.5" y="-14.8" font-family="Times,serif" font-size="14.00">1 :int</text>
</g>
<!-- node131 -->
<g id="node19" class="node">
<title>node131</title>
<polygon fill="none" stroke="black" points="659,-0.5 659,-36.5 774,-36.5 774,-0.5 659,-0.5"/>
<text text-anchor="middle" x="694" y="-14.8" font-family="Times,serif" font-size="14.00">[131] Arg</text>
<polyline fill="none" stroke="black" points="729,-0.5 729,-36.5 "/>
<text text-anchor="middle" x="751.5" y="-14.8" font-family="Times,serif" font-size="14.00">0 :int</text>
</g>
<!-- node141 -->
<g id="node20" class="node">
<title>node141</title>
<polygon fill="none" stroke="black" points="745,-73.5 745,-109.5 908,-109.5 908,-73.5 745,-73.5"/>
<text text-anchor="middle" x="780.5" y="-87.8" font-family="Times,serif" font-size="14.00">[141] Sub</text>
<polyline fill="none" stroke="black" points="816,-73.5 816,-109.5 "/>
<text text-anchor="middle" x="839" y="-87.8" font-family="Times,serif" font-size="14.00">[121]</text>
<polyline fill="none" stroke="black" points="862,-73.5 862,-109.5 "/>
<text text-anchor="middle" x="885" y="-87.8" font-family="Times,serif" font-size="14.00">[131]</text>
</g>
<!-- node141&#45;&gt;node121 -->
<g id="edge20" class="edge">
<title>node141:0&#45;&gt;node121</title>
<path fill="none" stroke="black" d="M839.5,-73C839.5,-64.36 840.77,-55.07 842.41,-46.7"/>
<polygon fill="black" stroke="black" points="845.88,-47.21 844.62,-36.7 839.05,-45.71 845.88,-47.21"/>
</g>
<!-- node141&#45;&gt;node131 -->
<g id="edge21" class="edge">
<title>node141:1&#45;&gt;node131</title>
<path fill="none" stroke="black" d="M885.5,-73C885.5,-67.42 831.15,-50.96 784.1,-37.76"/>
<polygon fill="black" stroke="black" points="784.76,-34.31 774.19,-35 782.88,-41.05 784.76,-34.31"/>
</g>
<!-- node152 -->
<g id="node21" class="node">
<title>node152</title>
<polygon fill="none" stroke="black" points="652,-146.5 652,-182.5 817,-182.5 817,-146.5 652,-146.5"/>
<text text-anchor="middle" x="688.5" y="-160.8" font-family="Times,serif" font-size="14.00">[152] Mul</text>
<polyline fill="none" stroke="black" points="725,-146.5 725,-182.5 "/>
<text text-anchor="middle" x="748" y="-160.8" font-family="Times,serif" font-size="14.00">[131]</text>
<polyline fill="none" stroke="black" points="771,-146.5 771,-182.5 "/>
<text text-anchor="middle" x="794" y="-160.8" font-family="Times,serif" font-size="14.00">[141]</text>
</g>
<!-- node152&#45;&gt;node131 -->
<g id="edge22" class="edge">
<title>node152:0&#45;&gt;node131</title>
<path fill="none" stroke="black" d="M748.5,-146C748.5,-129.13 740.99,-126.26 736.5,-110 730.66,-88.87 725.37,-64.59 721.7,-46.51"/>
<polygon fill="black" stroke="black" points="725.12,-45.77 719.73,-36.64 718.26,-47.14 725.12,-45.77"/>
</g>
<!-- node152&#45;&gt;node141 -->
<g id="edge23" class="edge">
<title>node152:1&#45;&gt;node141</title>
<path fill="none" stroke="black" d="M794.5,-146C794.5,-136.04 798.64,-126.33 803.93,-117.97"/>
<polygon fill="black" stroke="black" points="806.8,-119.98 809.75,-109.8 801.1,-115.92 806.8,-119.98"/>
</g>
<!-- node163 -->
<g id="node22" class="node">
<title>node163</title>
<polygon fill="none" stroke="black" points="636,-219.5 636,-255.5 757,-255.5 757,-219.5 636,-219.5"/>
<text text-anchor="middle" x="673.5" y="-233.8" font-family="Times,serif" font-size="14.00">[163] Lam</text>
<polyline fill="none" stroke="black" points="711,-219.5 711,-255.5 "/>
<text text-anchor="middle" x="734" y="-233.8" font-family="Times,serif" font-size="14.00">[152]</text>
</g>
<!-- node163&#45;&gt;node152 -->
<g id="edge24" class="edge">
<title>node163:0&#45;&gt;node152</title>
<path fill="none" stroke="black" d="M734.5,-219C734.5,-210.51 734.5,-201.26 734.5,-192.88"/>
<polygon fill="black" stroke="black" points="738,-192.85 734.5,-182.85 731,-192.85 738,-192.85"/>
</g>
<!-- node167 -->
<g id="node23" class="node">
<title>node167</title>
<polygon fill="none" stroke="black" points="562,-292.5 562,-328.5 719,-328.5 719,-292.5 562,-292.5"/>
<text text-anchor="middle" x="598" y="-306.8" font-family="Times,serif" font-size="14.00">[167] App</text>
<polyline fill="none" stroke="black" points="634,-292.5 634,-328.5 "/>
<text text-anchor="middle" x="653.5" y="-306.8" font-family="Times,serif" font-size="14.00">[53]</text>
<polyline fill="none" stroke="black" points="673,-292.5 673,-328.5 "/>
<text text-anchor="middle" x="696" y="-306.8" font-family="Times,serif" font-size="14.00">[163]</text>
</g>
<!-- node167&#45;&gt;node53 -->
<g id="edge25" class="edge">
<title>node167:0&#45;&gt;node53</title>
<path fill="none" stroke="black" d="M653.5,-292C653.5,-279.25 631.36,-267.78 605.63,-258.77"/>
<polygon fill="black" stroke="black" points="606.62,-255.41 596.03,-255.56 604.41,-262.05 606.62,-255.41"/>
</g>
<!-- node167&#45;&gt;node163 -->
<g id="edge26" class="edge">
<title>node167:1&#45;&gt;node163</title>
<path fill="none" stroke="black" d="M696.5,-292C696.5,-283.51 696.5,-274.26 696.5,-265.88"/>
<polygon fill="black" stroke="black" points="700,-265.85 696.5,-255.85 693,-265.85 700,-265.85"/>
</g>
<!-- node178 -->
<g id="node24" class="node">
<title>node178</title>
<polygon fill="none" stroke="black" points="536,-365.5 536,-401.5 657,-401.5 657,-365.5 536,-365.5"/>
<text text-anchor="middle" x="573.5" y="-379.8" font-family="Times,serif" font-size="14.00">[178] Lam</text>
<polyline fill="none" stroke="black" points="611,-365.5 611,-401.5 "/>
<text text-anchor="middle" x="634" y="-379.8" font-family="Times,serif" font-size="14.00">[167]</text>
</g>
<!-- node178&#45;&gt;node167 -->
<g id="edge27" class="edge">
<title>node178:0&#45;&gt;node167</title>
<path fill="none" stroke="black" d="M634.5,-365C634.5,-356.46 635.26,-347.19 636.25,-338.81"/>
<polygon fill="black" stroke="black" points="639.73,-339.16 637.57,-328.79 632.79,-338.25 639.73,-339.16"/>
</g>
<!-- node188 -->
<g id="node25" class="node">
<title>node188</title>
<polygon fill="none" stroke="black" points="463.5,-438.5 463.5,-474.5 613.5,-474.5 613.5,-438.5 463.5,-438.5"/>
<text text-anchor="middle" x="499.5" y="-452.8" font-family="Times,serif" font-size="14.00">[188] App</text>
<polyline fill="none" stroke="black" points="535.5,-438.5 535.5,-474.5 "/>
<text text-anchor="middle" x="551.5" y="-452.8" font-family="Times,serif" font-size="14.00">[9]</text>
<polyline fill="none" stroke="black" points="567.5,-438.5 567.5,-474.5 "/>
<text text-anchor="middle" x="590.5" y="-452.8" font-family="Times,serif" font-size="14.00">[178]</text>
</g>
<!-- node188&#45;&gt;node9 -->
<g id="edge28" class="edge">
<title>node188:0&#45;&gt;node9</title>
<path fill="none" stroke="black" d="M551.5,-438C551.5,-386.93 374.69,-411.46 324.5,-402 321.68,-401.47 318.82,-400.91 315.92,-400.34"/>
<polygon fill="black" stroke="black" points="316.51,-396.89 306.01,-398.33 315.12,-403.75 316.51,-396.89"/>
</g>
<!-- node188&#45;&gt;node178 -->
<g id="edge29" class="edge">
<title>node188:1&#45;&gt;node178</title>
<path fill="none" stroke="black" d="M590.5,-438C590.5,-429.46 591.26,-420.19 592.25,-411.81"/>
<polygon fill="black" stroke="black" points="595.73,-412.16 593.57,-401.79 588.79,-411.25 595.73,-412.16"/>
</g>
<!-- node199&#45;&gt;node188 -->
<g id="edge30" class="edge">
<title>node199:0&#45;&gt;node188</title>
<path fill="none" stroke="black" d="M538.5,-511C538.5,-502.51 538.5,-493.26 538.5,-484.88"/>
<polygon fill="black" stroke="black" points="542,-484.85 538.5,-474.85 535,-484.85 542,-484.85"/>
</g>
</g>
</svg>