<?xml version="1.0" encoding="UTF-8" standalone="no"?>
<!DOCTYPE svg PUBLIC "-//W3C//DTD SVG 1.1//EN"
 "http://www.w3.org/Graphics/SVG/1.1/DTD/svg11.dtd">
<!-- Generated by graphviz version 2.50.0 (0)
 -->
<!-- Pages: 1 -->
<svg width="238pt" height="118pt"
 viewBox="0.00 0.00 238.00 118.00" xmlns="http://www.w3.org/2000/svg" xmlns:xlink="http://www.w3.org/1999/xlink">
<g id="graph0" class="graph" transform="scale(1 1) rotate(0) translate(4 114)">
<polygon fill="white" stroke="transparent" points="-4,4 -4,-114 234,-114 234,4 -4,4"/>
<!-- node1 -->
<g id="node1" class="node">
<title>node1</title>
<polygon fill="none" stroke="red" points="0,-0.5 0,-36.5 106,-36.5 106,-0.5 0,-0.5"/>
<text text-anchor="middle" x="30.5" y="-14.8" font-family="Times,serif" font-size="14.00">[1] num</text>
<polyline fill="none" stroke="red" points="61,-0.5 61,-36.5 "/>
<text text-anchor="middle" x="83.5" y="-14.8" font-family="Times,serif" font-size="14.00">1 :int</text>
</g>
<!-- node5 -->
<g id="node2" class="node">
<title>node5</title>
<polygon fill="none" stroke="red" points="124,-0.5 124,-36.5 230,-36.5 230,-0.5 124,-0.5"/>
<text text-anchor="middle" x="154.5" y="-14.8" font-family="Times,serif" font-size="14.00">[5] num</text>
<polyline fill="none" stroke="red" points="185,-0.5 185,-36.5 "/>
<text text-anchor="middle" x="207.5" y="-14.8" font-family="Times,serif" font-size="14.00">2 :int</text>
</g>
<!-- node9 -->
<g id="node3" class="node">
<title>node9</title>
<polygon fill="none" stroke="red" points="27,-73.5 27,-109.5 147,-109.5 147,-73.5 27,-73.5"/>
<text text-anchor="middle" x="55" y="-87.8" font-family="Times,serif" font-size="14.00">[9] add</text>
<polyline fill="none" stroke="red" points="83,-73.5 83,-109.5 "/>
<text text-anchor="middle" x="99" y="-87.8" font-family="Times,serif" font-size="14.00">[1]</text>
<polyline fill="none" stroke="red" points="115,-73.5 115,-109.5 "/>
<text text-anchor="middle" x="131" y="-87.8" font-family="Times,serif" font-size="14.00">[5]</text>
</g>
<!-- node9&#45;&gt;node1 -->
<g id="edge1" class="edge">
<title>node9:0&#45;&gt;node1</title>
<path fill="none" stroke="black" d="M99,-73C99,-61.84 93.17,-51.85 85.67,-43.6"/>
<polygon fill="black" stroke="black" points="88.03,-41.02 78.42,-36.54 83.14,-46.03 88.03,-41.02"/>
</g>
<!-- node9&#45;&gt;node5 -->
<g id="edge2" class="edge">
<title>node9:1&#45;&gt;node5</title>
<path fill="none" stroke="black" d="M131,-73C131,-61.84 136.83,-51.85 144.33,-43.6"/>
<polygon fill="black" stroke="black" points="146.86,-46.03 151.58,-36.54 141.97,-41.02 146.86,-46.03"/>
</g>
</g>
</svg>