<?xml version="1.0" encoding="UTF-8" standalone="no"?>
<!DOCTYPE svg PUBLIC "-//W3C//DTD SVG 1.1//EN"
 "http://www.w3.org/Graphics/SVG/1.1/DTD/svg11.dtd">
<!-- Generated by graphviz version 2.50.0 (0)
 -->
<!-- Pages: 1 -->
<svg width="999pt" height="360pt"
 viewBox="0.00 0.00 998.50 360.00" xmlns="http://www.w3.org/2000/svg" xmlns:xlink="http://www.w3.org/1999/xlink">
<g id="graph0" class="graph" transform="scale(1 1) rotate(0) translate(4 356)">
<polygon fill="white" stroke="transparent" points="-4,4 -4,-356 994.5,-356 994.5,4 -4,4"/>
<!-- start -->
<g id="node1" class="node">
<title>start</title>
<ellipse fill="none" stroke="black" cx="74" cy="-322" rx="26" ry="26"/>
<ellipse fill="none" stroke="black" cx="74" cy="-322" rx="30" ry="30"/>
<text text-anchor="middle" x="74" y="-318.3" font-family="Times,serif" font-size="14.00">start</text>
</g>
<!-- node44 -->
<g id="node11" class="node">
<title>node44</title>
<polygon fill="none" stroke="black" points="160.5,-219.5 160.5,-255.5 273.5,-255.5 273.5,-219.5 160.5,-219.5"/>
<text text-anchor="middle" x="194.5" y="-233.8" font-family="Times,serif" font-size="14.00">[44] num</text>
<polyline fill="none" stroke="black" points="228.5,-219.5 228.5,-255.5 "/>
<text text-anchor="middle" x="251" y="-233.8" font-family="Times,serif" font-size="14.00">2 :int</text>
</g>
<!-- start&#45;&gt;node44 -->
<g id="edge13" class="edge">
<title>start&#45;&gt;node44</title>
<path fill="none" stroke="black" d="M96.84,-302.52C101.72,-298.87 106.94,-295.18 112,-292 130.37,-280.44 151.54,-269.28 170.05,-260.16"/>
<polygon fill="black" stroke="black" points="171.7,-263.25 179.17,-255.73 168.64,-256.95 171.7,-263.25"/>
</g>
<!-- node1 -->
<g id="node2" class="node">
<title>node1</title>
<polygon fill="none" stroke="lightgrey" points="363,-0.5 363,-36.5 469,-36.5 469,-0.5 363,-0.5"/>
<text text-anchor="middle" x="393.5" y="-14.8" font-family="Times,serif" font-size="14.00">[1] num</text>
<polyline fill="none" stroke="lightgrey" points="424,-0.5 424,-36.5 "/>
<text text-anchor="middle" x="446.5" y="-14.8" font-family="Times,serif" font-size="14.00">1 :int</text>
</g>
<!-- node5 -->
<g id="node3" class="node">
<title>node5</title>
<polygon fill="none" stroke="lightgrey" points="487,-0.5 487,-36.5 593,-36.5 593,-0.5 487,-0.5"/>
<text text-anchor="middle" x="517.5" y="-14.8" font-family="Times,serif" font-size="14.00">[5] num</text>
<polyline fill="none" stroke="lightgrey" points="548,-0.5 548,-36.5 "/>
<text text-anchor="middle" x="570.5" y="-14.8" font-family="Times,serif" font-size="14.00">2 :int</text>
</g>
<!-- node9 -->
<g id="node4" class="node">
<title>node9</title>
<polygon fill="none" stroke="lightgrey" points="368,-73.5 368,-109.5 488,-109.5 488,-73.5 368,-73.5"/>
<text text-anchor="middle" x="396" y="-87.8" font-family="Times,serif" font-size="14.00">[9] add</text>
<polyline fill="none" stroke="lightgrey" points="424,-73.5 424,-109.5 "/>
<text text-anchor="middle" x="440" y="-87.8" font-family="Times,serif" font-size="14.00">[1]</text>
<polyline fill="none" stroke="lightgrey" points="456,-73.5 456,-109.5 "/>
<text text-anchor="middle" x="472" y="-87.8" font-family="Times,serif" font-size="14.00">[5]</text>
</g>
<!-- node9&#45;&gt;node1 -->
<g id="edge1" class="edge">
<title>node9:0&#45;&gt;node1</title>
<path fill="none" stroke="lightgrey" d="M440,-73C440,-63.68 436.93,-54.18 432.99,-45.83"/>
<polygon fill="lightgrey" stroke="lightgrey" points="436.06,-44.15 428.28,-36.95 429.87,-47.43 436.06,-44.15"/>
</g>
<!-- node9&#45;&gt;node5 -->
<g id="edge2" class="edge">
<title>node9:1&#45;&gt;node5</title>
<path fill="none" stroke="lightgrey" d="M472,-73C472,-60.44 479.26,-50.37 489.03,-42.51"/>
<polygon fill="lightgrey" stroke="lightgrey" points="491.16,-45.3 497.32,-36.68 487.13,-39.57 491.16,-45.3"/>
</g>
<!-- node14 -->
<g id="node5" class="node">
<title>node14</title>
<polygon fill="none" stroke="lightgrey" points="544,-146.5 544,-182.5 670,-182.5 670,-146.5 544,-146.5"/>
<text text-anchor="middle" x="575" y="-160.8" font-family="Times,serif" font-size="14.00">[14] sub</text>
<polyline fill="none" stroke="lightgrey" points="606,-146.5 606,-182.5 "/>
<text text-anchor="middle" x="622" y="-160.8" font-family="Times,serif" font-size="14.00">[9]</text>
<polyline fill="none" stroke="lightgrey" points="638,-146.5 638,-182.5 "/>
<text text-anchor="middle" x="654" y="-160.8" font-family="Times,serif" font-size="14.00">[5]</text>
</g>
<!-- node14&#45;&gt;node5 -->
<g id="edge4" class="edge">
<title>node14:1&#45;&gt;node5</title>
<path fill="none" stroke="lightgrey" d="M654,-146C654,-100.54 612.87,-64.06 580.03,-42.16"/>
<polygon fill="lightgrey" stroke="lightgrey" points="581.76,-39.11 571.45,-36.65 577.97,-45 581.76,-39.11"/>
</g>
<!-- node14&#45;&gt;node9 -->
<g id="edge3" class="edge">
<title>node14:0&#45;&gt;node9</title>
<path fill="none" stroke="lightgrey" d="M622,-146C622,-119.48 553.79,-105.6 498.26,-98.7"/>
<polygon fill="lightgrey" stroke="lightgrey" points="498.4,-95.19 488.05,-97.49 497.57,-102.14 498.4,-95.19"/>
</g>
<!-- node19 -->
<g id="node6" class="node">
<title>node19</title>
<polygon fill="none" stroke="lightgrey" points="435,-219.5 435,-255.5 571,-255.5 571,-219.5 435,-219.5"/>
<text text-anchor="middle" x="467.5" y="-233.8" font-family="Times,serif" font-size="14.00">[19] mul</text>
<polyline fill="none" stroke="lightgrey" points="500,-219.5 500,-255.5 "/>
<text text-anchor="middle" x="516" y="-233.8" font-family="Times,serif" font-size="14.00">[5]</text>
<polyline fill="none" stroke="lightgrey" points="532,-219.5 532,-255.5 "/>
<text text-anchor="middle" x="551.5" y="-233.8" font-family="Times,serif" font-size="14.00">[14]</text>
</g>
<!-- node19&#45;&gt;node5 -->
<g id="edge5" class="edge">
<title>node19:0&#45;&gt;node5</title>
<path fill="none" stroke="lightgrey" d="M516,-219C516,-156.98 527.58,-84.88 534.65,-46.62"/>
<polygon fill="lightgrey" stroke="lightgrey" points="538.09,-47.24 536.51,-36.76 531.21,-45.94 538.09,-47.24"/>
</g>
<!-- node19&#45;&gt;node14 -->
<g id="edge6" class="edge">
<title>node19:1&#45;&gt;node14</title>
<path fill="none" stroke="lightgrey" d="M552,-219C552,-207.25 558.52,-197.25 567.08,-189.19"/>
<polygon fill="lightgrey" stroke="lightgrey" points="569.55,-191.69 575.01,-182.6 565.08,-186.3 569.55,-191.69"/>
</g>
<!-- node24 -->
<g id="node7" class="node">
<title>node24</title>
<polygon fill="none" stroke="lightgrey" points="236.5,-73.5 236.5,-109.5 349.5,-109.5 349.5,-73.5 236.5,-73.5"/>
<text text-anchor="middle" x="270.5" y="-87.8" font-family="Times,serif" font-size="14.00">[24] num</text>
<polyline fill="none" stroke="lightgrey" points="304.5,-73.5 304.5,-109.5 "/>
<text text-anchor="middle" x="327" y="-87.8" font-family="Times,serif" font-size="14.00">3 :int</text>
</g>
<!-- node28 -->
<g id="node8" class="node">
<title>node28</title>
<polygon fill="none" stroke="lightgrey" points="0,-146.5 0,-182.5 394,-182.5 394,-146.5 0,-146.5"/>
<text text-anchor="middle" x="53.5" y="-160.8" font-family="Times,serif" font-size="14.00">[28] .md.rewrite</text>
<polyline fill="none" stroke="lightgrey" points="107,-146.5 107,-182.5 "/>
<text text-anchor="middle" x="215" y="-160.8" font-family="Times,serif" font-size="14.00">&#39;__main__.RewriteCalcMachine&#39; :str</text>
<polyline fill="none" stroke="lightgrey" points="323,-146.5 323,-182.5 "/>
<text text-anchor="middle" x="342.5" y="-160.8" font-family="Times,serif" font-size="14.00">[24]</text>
<polyline fill="none" stroke="lightgrey" points="362,-146.5 362,-182.5 "/>
<text text-anchor="middle" x="378" y="-160.8" font-family="Times,serif" font-size="14.00">[9]</text>
</g>
<!-- node28&#45;&gt;node9 -->
<g id="edge8" class="edge">
<title>node28:2&#45;&gt;node9</title>
<path fill="none" stroke="lightgrey" d="M378,-146C378,-134.61 384.12,-124.64 392.08,-116.49"/>
<polygon fill="lightgrey" stroke="lightgrey" points="394.71,-118.84 399.79,-109.53 390.02,-113.64 394.71,-118.84"/>
</g>
<!-- node28&#45;&gt;node24 -->
<g id="edge7" class="edge">
<title>node28:1&#45;&gt;node24</title>
<path fill="none" stroke="lightgrey" d="M343,-146C343,-134.61 336.88,-124.64 328.92,-116.49"/>
<polygon fill="lightgrey" stroke="lightgrey" points="330.98,-113.64 321.21,-109.53 326.29,-118.84 330.98,-113.64"/>
</g>
<!-- node34 -->
<g id="node9" class="node">
<title>node34</title>
<polygon fill="none" stroke="lightgrey" points="875.5,-146.5 875.5,-182.5 988.5,-182.5 988.5,-146.5 875.5,-146.5"/>
<text text-anchor="middle" x="909.5" y="-160.8" font-family="Times,serif" font-size="14.00">[34] num</text>
<polyline fill="none" stroke="lightgrey" points="943.5,-146.5 943.5,-182.5 "/>
<text text-anchor="middle" x="966" y="-160.8" font-family="Times,serif" font-size="14.00">1 :int</text>
</g>
<!-- node38 -->
<g id="node10" class="node">
<title>node38</title>
<polygon fill="none" stroke="lightgrey" points="589.5,-219.5 589.5,-255.5 990.5,-255.5 990.5,-219.5 589.5,-219.5"/>
<text text-anchor="middle" x="643" y="-233.8" font-family="Times,serif" font-size="14.00">[38] .md.rewrite</text>
<polyline fill="none" stroke="lightgrey" points="696.5,-219.5 696.5,-255.5 "/>
<text text-anchor="middle" x="804.5" y="-233.8" font-family="Times,serif" font-size="14.00">&#39;__main__.RewriteCalcMachine&#39; :str</text>
<polyline fill="none" stroke="lightgrey" points="912.5,-219.5 912.5,-255.5 "/>
<text text-anchor="middle" x="932" y="-233.8" font-family="Times,serif" font-size="14.00">[34]</text>
<polyline fill="none" stroke="lightgrey" points="951.5,-219.5 951.5,-255.5 "/>
<text text-anchor="middle" x="971" y="-233.8" font-family="Times,serif" font-size="14.00">[14]</text>
</g>
<!-- node38&#45;&gt;node14 -->
<g id="edge10" class="edge">
<title>node38:2&#45;&gt;node14</title>
<path fill="none" stroke="lightgrey" d="M971,-219C971,-189.92 786.77,-175.14 680.44,-169.03"/>
<polygon fill="lightgrey" stroke="lightgrey" points="680.58,-165.53 670.4,-168.46 680.19,-172.52 680.58,-165.53"/>
</g>
<!-- node38&#45;&gt;node34 -->
<g id="edge9" class="edge">
<title>node38:1&#45;&gt;node34</title>
<path fill="none" stroke="lightgrey" d="M932,-219C932,-210.51 932,-201.26 932,-192.88"/>
<polygon fill="lightgrey" stroke="lightgrey" points="935.5,-192.85 932,-182.85 928.5,-192.85 935.5,-192.85"/>
</g>
<!-- node48 -->
<g id="node12" class="node">
<title>node48</title>
<polygon fill="none" stroke="lightgrey" points="121.5,-304 121.5,-340 522.5,-340 522.5,-304 121.5,-304"/>
<text text-anchor="middle" x="175" y="-318.3" font-family="Times,serif" font-size="14.00">[48] .md.rewrite</text>
<polyline fill="none" stroke="lightgrey" points="228.5,-304 228.5,-340 "/>
<text text-anchor="middle" x="336.5" y="-318.3" font-family="Times,serif" font-size="14.00">&#39;__main__.RewriteCalcMachine&#39; :str</text>
<polyline fill="none" stroke="lightgrey" points="444.5,-304 444.5,-340 "/>
<text text-anchor="middle" x="464" y="-318.3" font-family="Times,serif" font-size="14.00">[44]</text>
<polyline fill="none" stroke="lightgrey" points="483.5,-304 483.5,-340 "/>
<text text-anchor="middle" x="503" y="-318.3" font-family="Times,serif" font-size="14.00">[19]</text>
</g>
<!-- node48&#45;&gt;node19 -->
<g id="edge12" class="edge">
<title>node48:2&#45;&gt;node19</title>
<path fill="none" stroke="lightgrey" d="M503,-303C503,-290.86 503,-277.44 503,-266"/>
<polygon fill="lightgrey" stroke="lightgrey" points="506.5,-265.75 503,-255.75 499.5,-265.75 506.5,-265.75"/>
</g>
<!-- node48&#45;&gt;node44 -->
<g id="edge11" class="edge">
<title>node48:1&#45;&gt;node44</title>
<path fill="none" stroke="lightgrey" d="M464,-303C464,-265.64 356.9,-249.52 283.75,-242.86"/>
<polygon fill="lightgrey" stroke="lightgrey" points="283.93,-239.36 273.67,-241.98 283.33,-246.34 283.93,-239.36"/>
</g>
</g>
</svg>