<?xml version="1.0" encoding="UTF-8" standalone="no"?>
<!DOCTYPE svg PUBLIC "-//W3C//DTD SVG 1.1//EN"
 "http://www.w3.org/Graphics/SVG/1.1/DTD/svg11.dtd">
<!-- Generated by graphviz version 2.50.0 (0)
 -->
<!-- Pages: 1 -->
<svg width="457pt" height="410pt"
 viewBox="0.00 0.00 456.50 410.00" xmlns="http://www.w3.org/2000/svg" xmlns:xlink="http://www.w3.org/1999/xlink">
<g id="graph0" class="graph" transform="scale(1 1) rotate(0) translate(4 406)">
<polygon fill="white" stroke="transparent" points="-4,4 -4,-406 452.5,-406 452.5,4 -4,4"/>
<!-- node1 -->
<g id="node1" class="node">
<title>node1</title>
<polygon fill="none" stroke="red" points="132.5,-365.5 132.5,-401.5 230.5,-401.5 230.5,-365.5 132.5,-365.5"/>
<text text-anchor="middle" x="159" y="-379.8" font-family="Times,serif" font-size="14.00">[1] arg</text>
<polyline fill="none" stroke="red" points="185.5,-365.5 185.5,-401.5 "/>
<text text-anchor="middle" x="208" y="-379.8" font-family="Times,serif" font-size="14.00">0 :int</text>
</g>
<!-- node10 -->
<g id="node3" class="node">
<title>node10</title>
<polygon fill="none" stroke="red" points="183,-292.5 183,-328.5 378,-328.5 378,-292.5 183,-292.5"/>
<text text-anchor="middle" x="216.5" y="-306.8" font-family="Times,serif" font-size="14.00">[10] expr</text>
<polyline fill="none" stroke="red" points="250,-292.5 250,-328.5 "/>
<text text-anchor="middle" x="282" y="-306.8" font-family="Times,serif" font-size="14.00">&#39;mul&#39; :str</text>
<polyline fill="none" stroke="red" points="314,-292.5 314,-328.5 "/>
<text text-anchor="middle" x="330" y="-306.8" font-family="Times,serif" font-size="14.00">[1]</text>
<polyline fill="none" stroke="red" points="346,-292.5 346,-328.5 "/>
<text text-anchor="middle" x="362" y="-306.8" font-family="Times,serif" font-size="14.00">[5]</text>
</g>
<!-- node1&#45;&gt;node10 -->
<g id="edge1" class="edge">
<title>node1&#45;&gt;node10:1</title>
<path fill="none" stroke="black" d="M230.7,-369.64C264.95,-360.12 307.29,-347.06 323.62,-336.66"/>
<polygon fill="black" stroke="black" points="326.42,-338.78 330.5,-329 321.21,-334.1 326.42,-338.78"/>
</g>
<!-- node16 -->
<g id="node4" class="node">
<title>node16</title>
<polygon fill="none" stroke="red" points="28.5,-219.5 28.5,-255.5 228.5,-255.5 228.5,-219.5 28.5,-219.5"/>
<text text-anchor="middle" x="62" y="-233.8" font-family="Times,serif" font-size="14.00">[16] expr</text>
<polyline fill="none" stroke="red" points="95.5,-219.5 95.5,-255.5 "/>
<text text-anchor="middle" x="126.5" y="-233.8" font-family="Times,serif" font-size="14.00">&#39;add&#39; :str</text>
<polyline fill="none" stroke="red" points="157.5,-219.5 157.5,-255.5 "/>
<text text-anchor="middle" x="177" y="-233.8" font-family="Times,serif" font-size="14.00">[10]</text>
<polyline fill="none" stroke="red" points="196.5,-219.5 196.5,-255.5 "/>
<text text-anchor="middle" x="212.5" y="-233.8" font-family="Times,serif" font-size="14.00">[1]</text>
</g>
<!-- node1&#45;&gt;node16 -->
<g id="edge4" class="edge">
<title>node1&#45;&gt;node16:2</title>
<path fill="none" stroke="black" d="M175.58,-365.38C170.1,-346.58 164.23,-315.89 174.5,-292 182.04,-274.47 202.78,-277.13 209.99,-265.81"/>
<polygon fill="black" stroke="black" points="213.41,-266.56 212.5,-256 206.63,-264.82 213.41,-266.56"/>
</g>
<!-- node5 -->
<g id="node2" class="node">
<title>node5</title>
<polygon fill="none" stroke="red" points="276.5,-365.5 276.5,-401.5 448.5,-401.5 448.5,-365.5 276.5,-365.5"/>
<text text-anchor="middle" x="306.5" y="-379.8" font-family="Times,serif" font-size="14.00">[5] expr</text>
<polyline fill="none" stroke="red" points="336.5,-365.5 336.5,-401.5 "/>
<text text-anchor="middle" x="370" y="-379.8" font-family="Times,serif" font-size="14.00">&#39;num&#39; :str</text>
<polyline fill="none" stroke="red" points="403.5,-365.5 403.5,-401.5 "/>
<text text-anchor="middle" x="426" y="-379.8" font-family="Times,serif" font-size="14.00">2 :int</text>
</g>
<!-- node5&#45;&gt;node10 -->
<g id="edge2" class="edge">
<title>node5&#45;&gt;node10:2</title>
<path fill="none" stroke="black" d="M362.5,-365.15C362.5,-357.55 362.5,-348.28 362.5,-339.15"/>
<polygon fill="black" stroke="black" points="366,-339 362.5,-329 359,-339 366,-339"/>
</g>
<!-- node10&#45;&gt;node16 -->
<g id="edge3" class="edge">
<title>node10&#45;&gt;node16:1</title>
<path fill="none" stroke="black" d="M203.49,-292.42C191.73,-286.17 182.35,-277.65 178.91,-266.01"/>
<polygon fill="black" stroke="black" points="182.36,-265.41 177.5,-256 175.43,-266.39 182.36,-265.41"/>
</g>
<!-- node22 -->
<g id="node5" class="node">
<title>node22</title>
<polygon fill="none" stroke="red" points="132.5,-146.5 132.5,-182.5 338.5,-182.5 338.5,-146.5 132.5,-146.5"/>
<text text-anchor="middle" x="166" y="-160.8" font-family="Times,serif" font-size="14.00">[22] expr</text>
<polyline fill="none" stroke="red" points="199.5,-146.5 199.5,-182.5 "/>
<text text-anchor="middle" x="230" y="-160.8" font-family="Times,serif" font-size="14.00">&#39;sub&#39; :str</text>
<polyline fill="none" stroke="red" points="260.5,-146.5 260.5,-182.5 "/>
<text text-anchor="middle" x="280" y="-160.8" font-family="Times,serif" font-size="14.00">[10]</text>
<polyline fill="none" stroke="red" points="299.5,-146.5 299.5,-182.5 "/>
<text text-anchor="middle" x="319" y="-160.8" font-family="Times,serif" font-size="14.00">[16]</text>
</g>
<!-- node10&#45;&gt;node22 -->
<g id="edge5" class="edge">
<title>node10&#45;&gt;node22:1</title>
<path fill="none" stroke="black" d="M280.5,-292.31C280.5,-270.07 280.5,-229.82 280.5,-193.21"/>
<polygon fill="black" stroke="black" points="284,-193 280.5,-183 277,-193 284,-193"/>
</g>
<!-- node16&#45;&gt;node22 -->
<g id="edge6" class="edge">
<title>node16&#45;&gt;node22:2</title>
<path fill="none" stroke="black" d="M228.75,-225.48C267.3,-218.82 304.82,-208.5 316.09,-192.85"/>
<polygon fill="black" stroke="black" points="319.53,-193.59 319.5,-183 312.92,-191.3 319.53,-193.59"/>
</g>
<!-- node28 -->
<g id="node6" class="node">
<title>node28</title>
<polygon fill="none" stroke="red" points="0,-73.5 0,-109.5 209,-109.5 209,-73.5 0,-73.5"/>
<text text-anchor="middle" x="33.5" y="-87.8" font-family="Times,serif" font-size="14.00">[28] expr</text>
<polyline fill="none" stroke="red" points="67,-73.5 67,-109.5 "/>
<text text-anchor="middle" x="99" y="-87.8" font-family="Times,serif" font-size="14.00">&#39;mul&#39; :str</text>
<polyline fill="none" stroke="red" points="131,-73.5 131,-109.5 "/>
<text text-anchor="middle" x="150.5" y="-87.8" font-family="Times,serif" font-size="14.00">[16]</text>
<polyline fill="none" stroke="red" points="170,-73.5 170,-109.5 "/>
<text text-anchor="middle" x="189.5" y="-87.8" font-family="Times,serif" font-size="14.00">[22]</text>
</g>
<!-- node16&#45;&gt;node28 -->
<g id="edge7" class="edge">
<title>node16&#45;&gt;node28:1</title>
<path fill="none" stroke="black" d="M123.86,-219.32C119.69,-200.74 115.34,-170.48 123.5,-146 128.49,-131.03 142.42,-129.72 148.07,-120.01"/>
<polygon fill="black" stroke="black" points="151.54,-120.54 150.5,-110 144.74,-118.89 151.54,-120.54"/>
</g>
<!-- node22&#45;&gt;node28 -->
<g id="edge8" class="edge">
<title>node22&#45;&gt;node28:2</title>
<path fill="none" stroke="black" d="M210.08,-146.46C201.93,-139.34 194.2,-130.3 191.02,-119.9"/>
<polygon fill="black" stroke="black" points="194.48,-119.35 189.5,-110 187.56,-120.42 194.48,-119.35"/>
</g>
<!-- node34 -->
<g id="node7" class="node">
<title>node34</title>
<polygon fill="none" stroke="red" points="21,-0.5 21,-36.5 124,-36.5 124,-0.5 21,-0.5"/>
<text text-anchor="middle" x="53" y="-14.8" font-family="Times,serif" font-size="14.00">[34] lam</text>
<polyline fill="none" stroke="red" points="85,-0.5 85,-36.5 "/>
<text text-anchor="middle" x="104.5" y="-14.8" font-family="Times,serif" font-size="14.00">[28]</text>
</g>
<!-- node28&#45;&gt;node34 -->
<g id="edge9" class="edge">
<title>node28&#45;&gt;node34:0</title>
<path fill="none" stroke="black" d="M104.5,-73.15C104.5,-65.55 104.5,-56.28 104.5,-47.15"/>
<polygon fill="black" stroke="black" points="108,-47 104.5,-37 101,-47 108,-47"/>
</g>
</g>
</svg>