<?xml version="1.0" encoding="UTF-8" standalone="no"?>
<!DOCTYPE svg PUBLIC "-//W3C//DTD SVG 1.1//EN"
 "http://www.w3.org/Graphics/SVG/1.1/DTD/svg11.dtd">
<!-- Generated by graphviz version 2.50.0 (0)
 -->
<!-- Pages: 1 -->
<svg width="457pt" height="506pt"
 viewBox="0.00 0.00 456.50 506.00" xmlns="http://www.w3.org/2000/svg" xmlns:xlink="http://www.w3.org/1999/xlink">
<g id="graph0" class="graph" transform="scale(1 1) rotate(0) translate(4 502)">
<polygon fill="white" stroke="transparent" points="-4,4 -4,-502 452.5,-502 452.5,4 -4,4"/>
<!-- start -->
<g id="node1" class="node">
<title>start</title>
<ellipse fill="none" stroke="black" cx="72.5" cy="-468" rx="26" ry="26"/>
<ellipse fill="none" stroke="black" cx="72.5" cy="-468" rx="30" ry="30"/>
<text text-anchor="middle" x="72.5" y="-464.3" font-family="Times,serif" font-size="14.00">start</text>
</g>
<!-- node34 -->
<g id="node8" class="node">
<title>node34</title>
<polygon fill="none" stroke="black" points="21,-365.5 21,-401.5 124,-401.5 124,-365.5 21,-365.5"/>
<text text-anchor="middle" x="53" y="-379.8" font-family="Times,serif" font-size="14.00">[34] lam</text>
<polyline fill="none" stroke="black" points="85,-365.5 85,-401.5 "/>
<text text-anchor="middle" x="104.5" y="-379.8" font-family="Times,serif" font-size="14.00">[28]</text>
</g>
<!-- start&#45;&gt;node34 -->
<g id="edge10" class="edge">
<title>start&#45;&gt;node34</title>
<path fill="none" stroke="black" d="M72.5,-437.68C72.5,-429.31 72.5,-420.22 72.5,-411.96"/>
<polygon fill="black" stroke="black" points="76,-411.72 72.5,-401.72 69,-411.72 76,-411.72"/>
</g>
<!-- node1 -->
<g id="node2" class="node">
<title>node1</title>
<polygon fill="none" stroke="black" points="133.5,-0.5 133.5,-36.5 231.5,-36.5 231.5,-0.5 133.5,-0.5"/>
<text text-anchor="middle" x="160" y="-14.8" font-family="Times,serif" font-size="14.00">[1] arg</text>
<polyline fill="none" stroke="black" points="186.5,-0.5 186.5,-36.5 "/>
<text text-anchor="middle" x="209" y="-14.8" font-family="Times,serif" font-size="14.00">0 :int</text>
</g>
<!-- node5 -->
<g id="node3" class="node">
<title>node5</title>
<polygon fill="none" stroke="black" points="276.5,-0.5 276.5,-36.5 448.5,-36.5 448.5,-0.5 276.5,-0.5"/>
<text text-anchor="middle" x="306.5" y="-14.8" font-family="Times,serif" font-size="14.00">[5] expr</text>
<polyline fill="none" stroke="black" points="336.5,-0.5 336.5,-36.5 "/>
<text text-anchor="middle" x="370" y="-14.8" font-family="Times,serif" font-size="14.00">&#39;num&#39; :str</text>
<polyline fill="none" stroke="black" points="403.5,-0.5 403.5,-36.5 "/>
<text text-anchor="middle" x="426" y="-14.8" font-family="Times,serif" font-size="14.00">2 :int</text>
</g>
<!-- node10 -->
<g id="node4" class="node">
<title>node10</title>
<polygon fill="none" stroke="black" points="183,-73.5 183,-109.5 378,-109.5 378,-73.5 183,-73.5"/>
<text text-anchor="middle" x="216.5" y="-87.8" font-family="Times,serif" font-size="14.00">[10] expr</text>
<polyline fill="none" stroke="black" points="250,-73.5 250,-109.5 "/>
<text text-anchor="middle" x="282" y="-87.8" font-family="Times,serif" font-size="14.00">&#39;mul&#39; :str</text>
<polyline fill="none" stroke="black" points="314,-73.5 314,-109.5 "/>
<text text-anchor="middle" x="330" y="-87.8" font-family="Times,serif" font-size="14.00">[1]</text>
<polyline fill="none" stroke="black" points="346,-73.5 346,-109.5 "/>
<text text-anchor="middle" x="362" y="-87.8" font-family="Times,serif" font-size="14.00">[5]</text>
</g>
<!-- node10&#45;&gt;node1 -->
<g id="edge1" class="edge">
<title>node10:1&#45;&gt;node1</title>
<path fill="none" stroke="black" d="M330.5,-73C330.5,-63.07 282.79,-47.17 241.55,-35.28"/>
<polygon fill="black" stroke="black" points="242.36,-31.87 231.78,-32.5 240.44,-38.61 242.36,-31.87"/>
</g>
<!-- node10&#45;&gt;node5 -->
<g id="edge2" class="edge">
<title>node10:2&#45;&gt;node5</title>
<path fill="none" stroke="black" d="M362.5,-73C362.5,-64.51 362.5,-55.26 362.5,-46.88"/>
<polygon fill="black" stroke="black" points="366,-46.85 362.5,-36.85 359,-46.85 366,-46.85"/>
</g>
<!-- node16 -->
<g id="node5" class="node">
<title>node16</title>
<polygon fill="none" stroke="black" points="28.5,-146.5 28.5,-182.5 228.5,-182.5 228.5,-146.5 28.5,-146.5"/>
<text text-anchor="middle" x="62" y="-160.8" font-family="Times,serif" font-size="14.00">[16] expr</text>
<polyline fill="none" stroke="black" points="95.5,-146.5 95.5,-182.5 "/>
<text text-anchor="middle" x="126.5" y="-160.8" font-family="Times,serif" font-size="14.00">&#39;add&#39; :str</text>
<polyline fill="none" stroke="black" points="157.5,-146.5 157.5,-182.5 "/>
<text text-anchor="middle" x="177" y="-160.8" font-family="Times,serif" font-size="14.00">[10]</text>
<polyline fill="none" stroke="black" points="196.5,-146.5 196.5,-182.5 "/>
<text text-anchor="middle" x="212.5" y="-160.8" font-family="Times,serif" font-size="14.00">[1]</text>
</g>
<!-- node16&#45;&gt;node1 -->
<g id="edge4" class="edge">
<title>node16:2&#45;&gt;node1</title>
<path fill="none" stroke="black" d="M212.5,-146C212.5,-122.41 182.96,-131.61 173.5,-110 164.68,-89.86 168.12,-64.86 173.09,-46.25"/>
<polygon fill="black" stroke="black" points="176.45,-47.21 175.94,-36.63 169.74,-45.22 176.45,-47.21"/>
</g>
<!-- node16&#45;&gt;node10 -->
<g id="edge3" class="edge">
<title>node16:1&#45;&gt;node10</title>
<path fill="none" stroke="black" d="M177.5,-146C177.5,-132.51 184.54,-122.42 194.94,-114.87"/>
<polygon fill="black" stroke="black" points="196.83,-117.82 203.49,-109.58 193.15,-111.87 196.83,-117.82"/>
</g>
<!-- node22 -->
<g id="node6" class="node">
<title>node22</title>
<polygon fill="none" stroke="black" points="132.5,-219.5 132.5,-255.5 338.5,-255.5 338.5,-219.5 132.5,-219.5"/>
<text text-anchor="middle" x="166" y="-233.8" font-family="Times,serif" font-size="14.00">[22] expr</text>
<polyline fill="none" stroke="black" points="199.5,-219.5 199.5,-255.5 "/>
<text text-anchor="middle" x="230" y="-233.8" font-family="Times,serif" font-size="14.00">&#39;sub&#39; :str</text>
<polyline fill="none" stroke="black" points="260.5,-219.5 260.5,-255.5 "/>
<text text-anchor="middle" x="280" y="-233.8" font-family="Times,serif" font-size="14.00">[10]</text>
<polyline fill="none" stroke="black" points="299.5,-219.5 299.5,-255.5 "/>
<text text-anchor="middle" x="319" y="-233.8" font-family="Times,serif" font-size="14.00">[16]</text>
</g>
<!-- node22&#45;&gt;node10 -->
<g id="edge5" class="edge">
<title>node22:1&#45;&gt;node10</title>
<path fill="none" stroke="black" d="M280.5,-219C280.5,-184.79 280.5,-145.39 280.5,-119.77"/>
<polygon fill="black" stroke="black" points="284,-119.69 280.5,-109.69 277,-119.69 284,-119.69"/>
</g>
<!-- node22&#45;&gt;node16 -->
<g id="edge6" class="edge">
<title>node22:2&#45;&gt;node16</title>
<path fill="none" stroke="black" d="M319.5,-219C319.5,-199.23 281.09,-186.44 238.71,-178.33"/>
<polygon fill="black" stroke="black" points="239.22,-174.87 228.75,-176.52 237.97,-181.75 239.22,-174.87"/>
</g>
<!-- node28 -->
<g id="node7" class="node">
<title>node28</title>
<polygon fill="none" stroke="black" points="0,-292.5 0,-328.5 209,-328.5 209,-292.5 0,-292.5"/>
<text text-anchor="middle" x="33.5" y="-306.8" font-family="Times,serif" font-size="14.00">[28] expr</text>
<polyline fill="none" stroke="black" points="67,-292.5 67,-328.5 "/>
<text text-anchor="middle" x="99" y="-306.8" font-family="Times,serif" font-size="14.00">&#39;mul&#39; :str</text>
<polyline fill="none" stroke="black" points="131,-292.5 131,-328.5 "/>
<text text-anchor="middle" x="150.5" y="-306.8" font-family="Times,serif" font-size="14.00">[16]</text>
<polyline fill="none" stroke="black" points="170,-292.5 170,-328.5 "/>
<text text-anchor="middle" x="189.5" y="-306.8" font-family="Times,serif" font-size="14.00">[22]</text>
</g>
<!-- node28&#45;&gt;node16 -->
<g id="edge7" class="edge">
<title>node28:1&#45;&gt;node16</title>
<path fill="none" stroke="black" d="M150.5,-292C150.5,-272 129.82,-274.97 123.5,-256 116.68,-235.53 118.6,-211.03 121.85,-192.69"/>
<polygon fill="black" stroke="black" points="125.32,-193.17 123.86,-182.68 118.46,-191.79 125.32,-193.17"/>
</g>
<!-- node28&#45;&gt;node22 -->
<g id="edge8" class="edge">
<title>node28:2&#45;&gt;node22</title>
<path fill="none" stroke="black" d="M189.5,-292C189.5,-280.84 195.33,-270.85 202.83,-262.6"/>
<polygon fill="black" stroke="black" points="205.36,-265.03 210.08,-255.54 200.47,-260.02 205.36,-265.03"/>
</g>
<!-- node34&#45;&gt;node28 -->
<g id="edge9" class="edge">
<title>node34:0&#45;&gt;node28</title>
<path fill="none" stroke="black" d="M104.5,-365C104.5,-356.51 104.5,-347.26 104.5,-338.88"/>
<polygon fill="black" stroke="black" points="108,-338.85 104.5,-328.85 101,-338.85 108,-338.85"/>
</g>
</g>
</svg>