<?xml version="1.0" encoding="UTF-8" standalone="no"?>
<!DOCTYPE svg PUBLIC "-//W3C//DTD SVG 1.1//EN"
 "http://www.w3.org/Graphics/SVG/1.1/DTD/svg11.dtd">
<!-- Generated by graphviz version 2.50.0 (0)
 -->
<!-- Pages: 1 -->
<svg width="238pt" height="264pt"
 viewBox="0.00 0.00 238.00 264.00" xmlns="http://www.w3.org/2000/svg" xmlns:xlink="http://www.w3.org/1999/xlink">
<g id="graph0" class="graph" transform="scale(1 1) rotate(0) translate(4 260)">
<polygon fill="white" stroke="transparent" points="-4,4 -4,-260 234,-260 234,4 -4,4"/>
<!-- node1 -->
<g id="node1" class="node">
<title>node1</title>
<polygon fill="none" stroke="red" points="0,-219.5 0,-255.5 106,-255.5 106,-219.5 0,-219.5"/>
<text text-anchor="middle" x="30.5" y="-233.8" font-family="Times,serif" font-size="14.00">[1] num</text>
<polyline fill="none" stroke="red" points="61,-219.5 61,-255.5 "/>
<text text-anchor="middle" x="83.5" y="-233.8" font-family="Times,serif" font-size="14.00">1 :int</text>
</g>
<!-- node9 -->
<g id="node3" class="node">
<title>node9</title>
<polygon fill="none" stroke="red" points="10,-146.5 10,-182.5 130,-182.5 130,-146.5 10,-146.5"/>
<text text-anchor="middle" x="38" y="-160.8" font-family="Times,serif" font-size="14.00">[9] add</text>
<polyline fill="none" stroke="red" points="66,-146.5 66,-182.5 "/>
<text text-anchor="middle" x="82" y="-160.8" font-family="Times,serif" font-size="14.00">[1]</text>
<polyline fill="none" stroke="red" points="98,-146.5 98,-182.5 "/>
<text text-anchor="middle" x="114" y="-160.8" font-family="Times,serif" font-size="14.00">[5]</text>
</g>
<!-- node1&#45;&gt;node9 -->
<g id="edge1" class="edge">
<title>node1&#45;&gt;node9:0</title>
<path fill="none" stroke="black" d="M67.84,-219.42C73.14,-212.04 78.37,-202.89 80.72,-193.21"/>
<polygon fill="black" stroke="black" points="84.23,-193.36 82,-183 77.28,-192.49 84.23,-193.36"/>
</g>
<!-- node5 -->
<g id="node2" class="node">
<title>node5</title>
<polygon fill="none" stroke="red" points="124,-219.5 124,-255.5 230,-255.5 230,-219.5 124,-219.5"/>
<text text-anchor="middle" x="154.5" y="-233.8" font-family="Times,serif" font-size="14.00">[5] num</text>
<polyline fill="none" stroke="red" points="185,-219.5 185,-255.5 "/>
<text text-anchor="middle" x="207.5" y="-233.8" font-family="Times,serif" font-size="14.00">2 :int</text>
</g>
<!-- node5&#45;&gt;node9 -->
<g id="edge2" class="edge">
<title>node5&#45;&gt;node9:1</title>
<path fill="none" stroke="black" d="M138.54,-219.31C128.39,-212.62 119.26,-203.91 115.65,-193.08"/>
<polygon fill="black" stroke="black" points="119.07,-192.31 114,-183 112.16,-193.43 119.07,-192.31"/>
</g>
<!-- node14 -->
<g id="node4" class="node">
<title>node14</title>
<polygon fill="none" stroke="red" points="42,-73.5 42,-109.5 168,-109.5 168,-73.5 42,-73.5"/>
<text text-anchor="middle" x="73" y="-87.8" font-family="Times,serif" font-size="14.00">[14] sub</text>
<polyline fill="none" stroke="red" points="104,-73.5 104,-109.5 "/>
<text text-anchor="middle" x="120" y="-87.8" font-family="Times,serif" font-size="14.00">[9]</text>
<polyline fill="none" stroke="red" points="136,-73.5 136,-109.5 "/>
<text text-anchor="middle" x="152" y="-87.8" font-family="Times,serif" font-size="14.00">[5]</text>
</g>
<!-- node5&#45;&gt;node14 -->
<g id="edge4" class="edge">
<title>node5&#45;&gt;node14:1</title>
<path fill="none" stroke="black" d="M171.33,-219.12C164.58,-197.01 154.02,-157.25 152.25,-120.32"/>
<polygon fill="black" stroke="black" points="155.75,-119.91 152,-110 148.75,-120.08 155.75,-119.91"/>
</g>
<!-- node19 -->
<g id="node5" class="node">
<title>node19</title>
<polygon fill="none" stroke="red" points="52,-0.5 52,-36.5 188,-36.5 188,-0.5 52,-0.5"/>
<text text-anchor="middle" x="84.5" y="-14.8" font-family="Times,serif" font-size="14.00">[19] mul</text>
<polyline fill="none" stroke="red" points="117,-0.5 117,-36.5 "/>
<text text-anchor="middle" x="133" y="-14.8" font-family="Times,serif" font-size="14.00">[5]</text>
<polyline fill="none" stroke="red" points="149,-0.5 149,-36.5 "/>
<text text-anchor="middle" x="168.5" y="-14.8" font-family="Times,serif" font-size="14.00">[14]</text>
</g>
<!-- node5&#45;&gt;node19 -->
<g id="edge5" class="edge">
<title>node5&#45;&gt;node19:0</title>
<path fill="none" stroke="black" d="M181.61,-219.22C188.91,-188.19 200.1,-121.74 177,-73 167.96,-53.91 143.29,-59.24 135.43,-46.74"/>
<polygon fill="black" stroke="black" points="138.82,-45.85 133,-37 132.03,-47.55 138.82,-45.85"/>
</g>
<!-- node9&#45;&gt;node14 -->
<g id="edge3" class="edge">
<title>node9&#45;&gt;node14:0</title>
<path fill="none" stroke="black" d="M98.21,-146.47C106.9,-139.47 115.06,-130.53 118.4,-120.05"/>
<polygon fill="black" stroke="black" points="121.89,-120.43 120,-110 114.97,-119.33 121.89,-120.43"/>
</g>
<!-- node14&#45;&gt;node19 -->
<g id="edge6" class="edge">
<title>node14&#45;&gt;node19:1</title>
<path fill="none" stroke="black" d="M144.07,-73.45C154.38,-66.78 163.65,-58.07 167.33,-47.16"/>
<polygon fill="black" stroke="black" points="170.83,-47.44 169,-37 163.92,-46.3 170.83,-47.44"/>
</g>
</g>
</svg>