<?xml version="1.0" encoding="UTF-8" standalone="no"?>
<!DOCTYPE svg PUBLIC "-//W3C//DTD SVG 1.1//EN"
 "http://www.w3.org/Graphics/SVG/1.1/DTD/svg11.dtd">
<!-- Generated by graphviz version 2.50.0 (0)
 -->
<!-- Pages: 1 -->
<svg width="291pt" height="506pt"
 viewBox="0.00 0.00 291.00 506.00" xmlns="http://www.w3.org/2000/svg" xmlns:xlink="http://www.w3.org/1999/xlink">
<g id="graph0" class="graph" transform="scale(1 1) rotate(0) translate(4 502)">
<polygon fill="white" stroke="transparent" points="-4,4 -4,-502 287,-502 287,4 -4,4"/>
<!-- start -->
<g id="node1" class="node">
<title>start</title>
<ellipse fill="none" stroke="black" cx="53.5" cy="-468" rx="26" ry="26"/>
<ellipse fill="none" stroke="black" cx="53.5" cy="-468" rx="30" ry="30"/>
<text text-anchor="middle" x="53.5" y="-464.3" font-family="Times,serif" font-size="14.00">start</text>
</g>
<!-- node29 -->
<g id="node8" class="node">
<title>node29</title>
<polygon fill="none" stroke="black" points="0,-365.5 0,-401.5 107,-401.5 107,-365.5 0,-365.5"/>
<text text-anchor="middle" x="34" y="-379.8" font-family="Times,serif" font-size="14.00">[29] Lam</text>
<polyline fill="none" stroke="black" points="68,-365.5 68,-401.5 "/>
<text text-anchor="middle" x="87.5" y="-379.8" font-family="Times,serif" font-size="14.00">[24]</text>
</g>
<!-- start&#45;&gt;node29 -->
<g id="edge10" class="edge">
<title>start&#45;&gt;node29</title>
<path fill="none" stroke="black" d="M53.5,-437.68C53.5,-429.31 53.5,-420.22 53.5,-411.96"/>
<polygon fill="black" stroke="black" points="57,-411.72 53.5,-401.72 50,-411.72 57,-411.72"/>
</g>
<!-- node1 -->
<g id="node2" class="node">
<title>node1</title>
<polygon fill="none" stroke="black" points="48,-0.5 48,-36.5 149,-36.5 149,-0.5 48,-0.5"/>
<text text-anchor="middle" x="76" y="-14.8" font-family="Times,serif" font-size="14.00">[1] Arg</text>
<polyline fill="none" stroke="black" points="104,-0.5 104,-36.5 "/>
<text text-anchor="middle" x="126.5" y="-14.8" font-family="Times,serif" font-size="14.00">0 :int</text>
</g>
<!-- node5 -->
<g id="node3" class="node">
<title>node5</title>
<polygon fill="none" stroke="black" points="174,-0.5 174,-36.5 283,-36.5 283,-0.5 174,-0.5"/>
<text text-anchor="middle" x="206" y="-14.8" font-family="Times,serif" font-size="14.00">[5] Num</text>
<polyline fill="none" stroke="black" points="238,-0.5 238,-36.5 "/>
<text text-anchor="middle" x="260.5" y="-14.8" font-family="Times,serif" font-size="14.00">2 :int</text>
</g>
<!-- node9 -->
<g id="node4" class="node">
<title>node9</title>
<polygon fill="none" stroke="black" points="121,-73.5 121,-109.5 244,-109.5 244,-73.5 121,-73.5"/>
<text text-anchor="middle" x="150.5" y="-87.8" font-family="Times,serif" font-size="14.00">[9] Mul</text>
<polyline fill="none" stroke="black" points="180,-73.5 180,-109.5 "/>
<text text-anchor="middle" x="196" y="-87.8" font-family="Times,serif" font-size="14.00">[1]</text>
<polyline fill="none" stroke="black" points="212,-73.5 212,-109.5 "/>
<text text-anchor="middle" x="228" y="-87.8" font-family="Times,serif" font-size="14.00">[5]</text>
</g>
<!-- node9&#45;&gt;node1 -->
<g id="edge1" class="edge">
<title>node9:0&#45;&gt;node1</title>
<path fill="none" stroke="black" d="M196.5,-73C196.5,-62.02 177.3,-50.28 155.9,-40.6"/>
<polygon fill="black" stroke="black" points="157.21,-37.35 146.64,-36.59 154.42,-43.77 157.21,-37.35"/>
</g>
<!-- node9&#45;&gt;node5 -->
<g id="edge2" class="edge">
<title>node9:1&#45;&gt;node5</title>
<path fill="none" stroke="black" d="M228.5,-73C228.5,-64.51 228.5,-55.26 228.5,-46.88"/>
<polygon fill="black" stroke="black" points="232,-46.85 228.5,-36.85 225,-46.85 232,-46.85"/>
</g>
<!-- node14 -->
<g id="node5" class="node">
<title>node14</title>
<polygon fill="none" stroke="black" points="17,-146.5 17,-182.5 146,-182.5 146,-146.5 17,-146.5"/>
<text text-anchor="middle" x="49.5" y="-160.8" font-family="Times,serif" font-size="14.00">[14] Add</text>
<polyline fill="none" stroke="black" points="82,-146.5 82,-182.5 "/>
<text text-anchor="middle" x="98" y="-160.8" font-family="Times,serif" font-size="14.00">[9]</text>
<polyline fill="none" stroke="black" points="114,-146.5 114,-182.5 "/>
<text text-anchor="middle" x="130" y="-160.8" font-family="Times,serif" font-size="14.00">[1]</text>
</g>
<!-- node14&#45;&gt;node1 -->
<g id="edge4" class="edge">
<title>node14:1&#45;&gt;node1</title>
<path fill="none" stroke="black" d="M130.5,-146C130.5,-127.91 117.09,-127.21 111.5,-110 104.81,-89.4 101.56,-65.05 99.98,-46.8"/>
<polygon fill="black" stroke="black" points="103.45,-46.28 99.21,-36.57 96.47,-46.8 103.45,-46.28"/>
</g>
<!-- node14&#45;&gt;node9 -->
<g id="edge3" class="edge">
<title>node14:0&#45;&gt;node9</title>
<path fill="none" stroke="black" d="M98.5,-146C98.5,-132.77 106,-122.67 116.52,-115.01"/>
<polygon fill="black" stroke="black" points="118.48,-117.91 125.08,-109.62 114.75,-111.99 118.48,-117.91"/>
</g>
<!-- node19 -->
<g id="node6" class="node">
<title>node19</title>
<polygon fill="none" stroke="black" points="102,-219.5 102,-255.5 237,-255.5 237,-219.5 102,-219.5"/>
<text text-anchor="middle" x="134" y="-233.8" font-family="Times,serif" font-size="14.00">[19] Sub</text>
<polyline fill="none" stroke="black" points="166,-219.5 166,-255.5 "/>
<text text-anchor="middle" x="182" y="-233.8" font-family="Times,serif" font-size="14.00">[9]</text>
<polyline fill="none" stroke="black" points="198,-219.5 198,-255.5 "/>
<text text-anchor="middle" x="217.5" y="-233.8" font-family="Times,serif" font-size="14.00">[14]</text>
</g>
<!-- node19&#45;&gt;node9 -->
<g id="edge5" class="edge">
<title>node19:0&#45;&gt;node9</title>
<path fill="none" stroke="black" d="M182.5,-219C182.5,-184.79 182.5,-145.39 182.5,-119.77"/>
<polygon fill="black" stroke="black" points="186,-119.69 182.5,-109.69 179,-119.69 186,-119.69"/>
</g>
<!-- node19&#45;&gt;node14 -->
<g id="edge6" class="edge">
<title>node19:1&#45;&gt;node14</title>
<path fill="none" stroke="black" d="M217.5,-219C217.5,-203.82 187.8,-191.15 156.16,-181.95"/>
<polygon fill="black" stroke="black" points="156.89,-178.52 146.31,-179.21 155.01,-185.26 156.89,-178.52"/>
</g>
<!-- node24 -->
<g id="node7" class="node">
<title>node24</title>
<polygon fill="none" stroke="black" points="15.5,-292.5 15.5,-328.5 159.5,-328.5 159.5,-292.5 15.5,-292.5"/>
<text text-anchor="middle" x="48.5" y="-306.8" font-family="Times,serif" font-size="14.00">[24] Mul</text>
<polyline fill="none" stroke="black" points="81.5,-292.5 81.5,-328.5 "/>
<text text-anchor="middle" x="101" y="-306.8" font-family="Times,serif" font-size="14.00">[14]</text>
<polyline fill="none" stroke="black" points="120.5,-292.5 120.5,-328.5 "/>
<text text-anchor="middle" x="140" y="-306.8" font-family="Times,serif" font-size="14.00">[19]</text>
</g>
<!-- node24&#45;&gt;node14 -->
<g id="edge7" class="edge">
<title>node24:0&#45;&gt;node14</title>
<path fill="none" stroke="black" d="M101.5,-292C101.5,-275.51 95.5,-272.22 92.5,-256 88.59,-234.89 85.74,-210.75 83.92,-192.71"/>
<polygon fill="black" stroke="black" points="87.39,-192.23 82.94,-182.61 80.42,-192.9 87.39,-192.23"/>
</g>
<!-- node24&#45;&gt;node19 -->
<g id="edge8" class="edge">
<title>node24:1&#45;&gt;node19</title>
<path fill="none" stroke="black" d="M140.5,-292C140.5,-282.22 144.29,-272.53 149.13,-264.13"/>
<polygon fill="black" stroke="black" points="152.16,-265.88 154.66,-255.58 146.29,-262.07 152.16,-265.88"/>
</g>
<!-- node29&#45;&gt;node24 -->
<g id="edge9" class="edge">
<title>node29:0&#45;&gt;node24</title>
<path fill="none" stroke="black" d="M87.5,-365C87.5,-356.51 87.5,-347.26 87.5,-338.88"/>
<polygon fill="black" stroke="black" points="91,-338.85 87.5,-328.85 84,-338.85 91,-338.85"/>
</g>
</g>
</svg>