<?xml version="1.0" encoding="UTF-8" standalone="no"?>
<!DOCTYPE svg PUBLIC "-//W3C//DTD SVG 1.1//EN"
 "http://www.w3.org/Graphics/SVG/1.1/DTD/svg11.dtd">
<!-- Generated by graphviz version 2.50.0 (0)
 -->
<!-- Pages: 1 -->
<svg width="730pt" height="337pt"
 viewBox="0.00 0.00 730.00 337.00" xmlns="http://www.w3.org/2000/svg" xmlns:xlink="http://www.w3.org/1999/xlink">
<g id="graph0" class="graph" transform="scale(1 1) rotate(0) translate(4 333)">
<polygon fill="white" stroke="transparent" points="-4,4 -4,-333 726,-333 726,4 -4,4"/>
<!-- node1 -->
<g id="node1" class="node">
<title>node1</title>
<polygon fill="none" stroke="red" points="492,-0.5 492,-36.5 598,-36.5 598,-0.5 492,-0.5"/>
<text text-anchor="middle" x="522.5" y="-14.8" font-family="Times,serif" font-size="14.00">[1] num</text>
<polyline fill="none" stroke="red" points="553,-0.5 553,-36.5 "/>
<text text-anchor="middle" x="575.5" y="-14.8" font-family="Times,serif" font-size="14.00">1 :int</text>
</g>
<!-- node5 -->
<g id="node2" class="node">
<title>node5</title>
<polygon fill="none" stroke="red" points="616,-0.5 616,-36.5 722,-36.5 722,-0.5 616,-0.5"/>
<text text-anchor="middle" x="646.5" y="-14.8" font-family="Times,serif" font-size="14.00">[5] num</text>
<polyline fill="none" stroke="red" points="677,-0.5 677,-36.5 "/>
<text text-anchor="middle" x="699.5" y="-14.8" font-family="Times,serif" font-size="14.00">2 :int</text>
</g>
<!-- node9 -->
<g id="node3" class="node">
<title>node9</title>
<polygon fill="none" stroke="red" points="485,-73.5 485,-109.5 605,-109.5 605,-73.5 485,-73.5"/>
<text text-anchor="middle" x="513" y="-87.8" font-family="Times,serif" font-size="14.00">[9] add</text>
<polyline fill="none" stroke="red" points="541,-73.5 541,-109.5 "/>
<text text-anchor="middle" x="557" y="-87.8" font-family="Times,serif" font-size="14.00">[1]</text>
<polyline fill="none" stroke="red" points="573,-73.5 573,-109.5 "/>
<text text-anchor="middle" x="589" y="-87.8" font-family="Times,serif" font-size="14.00">[5]</text>
</g>
<!-- node9&#45;&gt;node1 -->
<g id="edge1" class="edge">
<title>node9:0&#45;&gt;node1</title>
<path fill="none" stroke="black" d="M557,-73C557,-64.2 555.44,-54.78 553.44,-46.34"/>
<polygon fill="black" stroke="black" points="556.81,-45.4 550.86,-36.63 550.04,-47.19 556.81,-45.4"/>
</g>
<!-- node9&#45;&gt;node5 -->
<g id="edge2" class="edge">
<title>node9:1&#45;&gt;node5</title>
<path fill="none" stroke="black" d="M589,-73C589,-59.82 596.6,-49.68 607.11,-41.96"/>
<polygon fill="black" stroke="black" points="609.09,-44.85 615.64,-36.52 605.33,-38.95 609.09,-44.85"/>
</g>
<!-- node14 -->
<g id="node4" class="node">
<title>node14</title>
<polygon fill="none" stroke="red" points="544,-146.5 544,-182.5 670,-182.5 670,-146.5 544,-146.5"/>
<text text-anchor="middle" x="575" y="-160.8" font-family="Times,serif" font-size="14.00">[14] sub</text>
<polyline fill="none" stroke="red" points="606,-146.5 606,-182.5 "/>
<text text-anchor="middle" x="622" y="-160.8" font-family="Times,serif" font-size="14.00">[9]</text>
<polyline fill="none" stroke="red" points="638,-146.5 638,-182.5 "/>
<text text-anchor="middle" x="654" y="-160.8" font-family="Times,serif" font-size="14.00">[5]</text>
</g>
<!-- node14&#45;&gt;node5 -->
<g id="edge4" class="edge">
<title>node14:1&#45;&gt;node5</title>
<path fill="none" stroke="black" d="M654,-146C654,-111.55 659.55,-72.2 663.9,-46.66"/>
<polygon fill="black" stroke="black" points="667.38,-47.07 665.67,-36.61 660.49,-45.85 667.38,-47.07"/>
</g>
<!-- node14&#45;&gt;node9 -->
<g id="edge3" class="edge">
<title>node14:0&#45;&gt;node9</title>
<path fill="none" stroke="black" d="M622,-146C622,-132.9 614.39,-122.75 603.95,-114.99"/>
<polygon fill="black" stroke="black" points="605.8,-112.01 595.5,-109.51 601.99,-117.88 605.8,-112.01"/>
</g>
<!-- node19 -->
<g id="node5" class="node">
<title>node19</title>
<polygon fill="none" stroke="red" points="582,-219.5 582,-255.5 718,-255.5 718,-219.5 582,-219.5"/>
<text text-anchor="middle" x="614.5" y="-233.8" font-family="Times,serif" font-size="14.00">[19] mul</text>
<polyline fill="none" stroke="red" points="647,-219.5 647,-255.5 "/>
<text text-anchor="middle" x="663" y="-233.8" font-family="Times,serif" font-size="14.00">[5]</text>
<polyline fill="none" stroke="red" points="679,-219.5 679,-255.5 "/>
<text text-anchor="middle" x="698.5" y="-233.8" font-family="Times,serif" font-size="14.00">[14]</text>
</g>
<!-- node19&#45;&gt;node5 -->
<g id="edge5" class="edge">
<title>node19:0&#45;&gt;node5</title>
<path fill="none" stroke="black" d="M663,-219C663,-201.49 675.37,-200.13 679,-183 688.97,-136.01 681.43,-79.85 675.15,-47.08"/>
<polygon fill="black" stroke="black" points="678.5,-46.02 673.09,-36.91 671.64,-47.4 678.5,-46.02"/>
</g>
<!-- node19&#45;&gt;node14 -->
<g id="edge6" class="edge">
<title>node19:1&#45;&gt;node14</title>
<path fill="none" stroke="black" d="M699,-219C699,-204.8 690.71,-194.31 679.11,-186.57"/>
<polygon fill="black" stroke="black" points="680.56,-183.37 670.14,-181.41 677.06,-189.43 680.56,-183.37"/>
</g>
<!-- node24 -->
<g id="node6" class="node">
<title>node24</title>
<polygon fill="none" stroke="black" points="286.5,-73.5 286.5,-109.5 399.5,-109.5 399.5,-73.5 286.5,-73.5"/>
<text text-anchor="middle" x="320.5" y="-87.8" font-family="Times,serif" font-size="14.00">[24] num</text>
<polyline fill="none" stroke="black" points="354.5,-73.5 354.5,-109.5 "/>
<text text-anchor="middle" x="377" y="-87.8" font-family="Times,serif" font-size="14.00">3 :int</text>
</g>
<!-- node28 -->
<g id="node7" class="node">
<title>node28</title>
<polygon fill="none" stroke="black" points="0,-146.5 0,-182.5 394,-182.5 394,-146.5 0,-146.5"/>
<text text-anchor="middle" x="53.5" y="-160.8" font-family="Times,serif" font-size="14.00">[28] .md.rewrite</text>
<polyline fill="none" stroke="black" points="107,-146.5 107,-182.5 "/>
<text text-anchor="middle" x="215" y="-160.8" font-family="Times,serif" font-size="14.00">&#39;__main__.RewriteCalcMachine&#39; :str</text>
<polyline fill="none" stroke="black" points="323,-146.5 323,-182.5 "/>
<text text-anchor="middle" x="342.5" y="-160.8" font-family="Times,serif" font-size="14.00">[24]</text>
<polyline fill="none" stroke="black" points="362,-146.5 362,-182.5 "/>
<text text-anchor="middle" x="378" y="-160.8" font-family="Times,serif" font-size="14.00">[9]</text>
</g>
<!-- node28&#45;&gt;node9 -->
<g id="edge8" class="edge">
<title>node28:2&#45;&gt;node9</title>
<path fill="none" stroke="black" d="M395,-164.5C403.96,-164.5 396.52,-152.18 403,-146 422.87,-127.06 450.08,-114.68 475.38,-106.65"/>
<polygon fill="black" stroke="black" points="476.38,-110 484.96,-103.78 474.37,-103.29 476.38,-110"/>
</g>
<!-- node28&#45;&gt;node24 -->
<g id="edge7" class="edge">
<title>node28:1&#45;&gt;node24</title>
<path fill="none" stroke="black" d="M343,-146C343,-137.51 343,-128.26 343,-119.88"/>
<polygon fill="black" stroke="black" points="346.5,-119.85 343,-109.85 339.5,-119.85 346.5,-119.85"/>
</g>
<!-- node34 -->
<g id="node8" class="node">
<title>node34</title>
<polygon fill="none" stroke="black" points="412.5,-146.5 412.5,-182.5 525.5,-182.5 525.5,-146.5 412.5,-146.5"/>
<text text-anchor="middle" x="446.5" y="-160.8" font-family="Times,serif" font-size="14.00">[34] num</text>
<polyline fill="none" stroke="black" points="480.5,-146.5 480.5,-182.5 "/>
<text text-anchor="middle" x="503" y="-160.8" font-family="Times,serif" font-size="14.00">1 :int</text>
</g>
<!-- node38 -->
<g id="node9" class="node">
<title>node38</title>
<polygon fill="none" stroke="black" points="162.5,-219.5 162.5,-255.5 563.5,-255.5 563.5,-219.5 162.5,-219.5"/>
<text text-anchor="middle" x="216" y="-233.8" font-family="Times,serif" font-size="14.00">[38] .md.rewrite</text>
<polyline fill="none" stroke="black" points="269.5,-219.5 269.5,-255.5 "/>
<text text-anchor="middle" x="377.5" y="-233.8" font-family="Times,serif" font-size="14.00">&#39;__main__.RewriteCalcMachine&#39; :str</text>
<polyline fill="none" stroke="black" points="485.5,-219.5 485.5,-255.5 "/>
<text text-anchor="middle" x="505" y="-233.8" font-family="Times,serif" font-size="14.00">[34]</text>
<polyline fill="none" stroke="black" points="524.5,-219.5 524.5,-255.5 "/>
<text text-anchor="middle" x="544" y="-233.8" font-family="Times,serif" font-size="14.00">[14]</text>
</g>
<!-- node38&#45;&gt;node14 -->
<g id="edge10" class="edge">
<title>node38:2&#45;&gt;node14</title>
<path fill="none" stroke="black" d="M544,-219C544,-206.78 550.97,-196.77 560.28,-188.85"/>
<polygon fill="black" stroke="black" points="562.61,-191.47 568.54,-182.69 558.43,-185.86 562.61,-191.47"/>
</g>
<!-- node38&#45;&gt;node34 -->
<g id="edge9" class="edge">
<title>node38:1&#45;&gt;node34</title>
<path fill="none" stroke="black" d="M505,-219C505,-208.86 500.5,-199.2 494.67,-190.95"/>
<polygon fill="black" stroke="black" points="497.23,-188.55 488.26,-182.9 491.76,-192.91 497.23,-188.55"/>
</g>
<!-- node44 -->
<g id="node10" class="node">
<title>node44</title>
<polygon fill="none" stroke="red" points="31.5,-219.5 31.5,-255.5 144.5,-255.5 144.5,-219.5 31.5,-219.5"/>
<text text-anchor="middle" x="65.5" y="-233.8" font-family="Times,serif" font-size="14.00">[44] num</text>
<polyline fill="none" stroke="red" points="99.5,-219.5 99.5,-255.5 "/>
<text text-anchor="middle" x="122" y="-233.8" font-family="Times,serif" font-size="14.00">2 :int</text>
</g>
<!-- node48 -->
<g id="node11" class="node">
<title>node48</title>
<polygon fill="none" stroke="red" points="6.5,-292.5 6.5,-328.5 407.5,-328.5 407.5,-292.5 6.5,-292.5"/>
<text text-anchor="middle" x="60" y="-306.8" font-family="Times,serif" font-size="14.00">[48] .md.rewrite</text>
<polyline fill="none" stroke="red" points="113.5,-292.5 113.5,-328.5 "/>
<text text-anchor="middle" x="221.5" y="-306.8" font-family="Times,serif" font-size="14.00">&#39;__main__.RewriteCalcMachine&#39; :str</text>
<polyline fill="none" stroke="red" points="329.5,-292.5 329.5,-328.5 "/>
<text text-anchor="middle" x="349" y="-306.8" font-family="Times,serif" font-size="14.00">[44]</text>
<polyline fill="none" stroke="red" points="368.5,-292.5 368.5,-328.5 "/>
<text text-anchor="middle" x="388" y="-306.8" font-family="Times,serif" font-size="14.00">[19]</text>
</g>
<!-- node48&#45;&gt;node19 -->
<g id="edge12" class="edge">
<title>node48:2&#45;&gt;node19</title>
<path fill="none" stroke="black" d="M409,-310.5C480.49,-310.5 559.11,-281.05 606.5,-259.82"/>
<polygon fill="black" stroke="black" points="608.19,-262.9 615.84,-255.56 605.29,-256.53 608.19,-262.9"/>
</g>
<!-- node48&#45;&gt;node44 -->
<g id="edge11" class="edge">
<title>node48:1&#45;&gt;node44</title>
<path fill="none" stroke="black" d="M349,-292C349,-250.31 213.58,-263.86 154.7,-255.82"/>
<polygon fill="black" stroke="black" points="155.11,-252.33 144.65,-254.04 153.89,-259.23 155.11,-252.33"/>
</g>
</g>
</svg>